<svg xmlns="http://www.w3.org/2000/svg" xmlns:xlink="http://www.w3.org/1999/xlink" width="500" zoomAndPan="magnify" viewBox="0 0 375 374.999991" height="500" preserveAspectRatio="xMidYMid meet" version="1.0"><defs><clipPath id="63238980f4"><path d="M 187.5 0 C 83.945312 0 0 83.945312 0 187.5 C 0 291.054688 83.945312 375 187.5 375 C 291.054688 375 375 291.054688 375 187.5 C 375 83.945312 291.054688 0 187.5 0 Z M 187.5 0 " clip-rule="nonzero"/></clipPath><clipPath id="41f895431d"><path d="M 0 0 L 375 0 L 375 375 L 0 375 Z M 0 0 " clip-rule="nonzero"/></clipPath><clipPath id="10fad55358"><path d="M 187.5 0 C 83.945312 0 0 83.945312 0 187.5 C 0 291.054688 83.945312 375 187.5 375 C 291.054688 375 375 291.054688 375 187.5 C 375 83.945312 291.054688 0 187.5 0 Z M 187.5 0 " clip-rule="nonzero"/></clipPath><clipPath id="32fae3f74d"><rect x="0" width="375" y="0" height="375"/></clipPath><clipPath id="3fc496b437"><path d="M 16.128906 16.128906 L 358.871094 16.128906 L 358.871094 358.871094 L 16.128906 358.871094 Z M 16.128906 16.128906 " clip-rule="nonzero"/></clipPath><clipPath id="8ae9b5ac56"><path d="M 187.5 16.128906 C 92.855469 16.128906 16.128906 92.855469 16.128906 187.5 C 16.128906 282.144531 92.855469 358.871094 187.5 358.871094 C 282.144531 358.871094 358.871094 282.144531 358.871094 187.5 C 358.871094 92.855469 282.144531 16.128906 187.5 16.128906 Z M 187.5 16.128906 " clip-rule="nonzero"/></clipPath><clipPath id="18e958f3ab"><path d="M 0.128906 0.128906 L 342.871094 0.128906 L 342.871094 342.871094 L 0.128906 342.871094 Z M 0.128906 0.128906 " clip-rule="nonzero"/></clipPath><clipPath id="9839ffb1cf"><path d="M 171.5 0.128906 C 76.855469 0.128906 0.128906 76.855469 0.128906 171.5 C 0.128906 266.144531 76.855469 342.871094 171.5 342.871094 C 266.144531 342.871094 342.871094 266.144531 342.871094 171.5 C 342.871094 76.855469 266.144531 0.128906 171.5 0.128906 Z M 171.5 0.128906 " clip-rule="nonzero"/></clipPath><clipPath id="39774567f6"><rect x="0" width="343" y="0" height="343"/></clipPath><clipPath id="6f143b445a"><path d="M 74.464844 69.917969 L 212 69.917969 L 212 191 L 74.464844 191 Z M 74.464844 69.917969 " clip-rule="nonzero"/></clipPath><clipPath id="a34de2b747"><path d="M 81 180 L 205 180 L 205 301.667969 L 81 301.667969 Z M 81 180 " clip-rule="nonzero"/></clipPath><clipPath id="e636439b37"><path d="M 208.007812 225.871094 L 267 225.871094 L 267 301.621094 L 208.007812 301.621094 Z M 208.007812 225.871094 " clip-rule="nonzero"/></clipPath></defs><g clip-path="url(#63238980f4)"><g transform="matrix(1, 0, 0, 1, 0, 0)"><g clip-path="url(#32fae3f74d)"><g clip-path="url(#41f895431d)"><g clip-path="url(#10fad55358)"><rect x="-82.5" width="540" fill="#0f0069" height="539.999987" y="-82.499998" fill-opacity="1"/></g></g></g></g></g><g clip-path="url(#3fc496b437)"><g clip-path="url(#8ae9b5ac56)"><g transform="matrix(1, 0, 0, 1, 16, 16)"><g clip-path="url(#39774567f6)"><g clip-path="url(#18e958f3ab)"><g clip-path="url(#9839ffb1cf)"><path fill="#004aad" d="M 0.128906 0.128906 L 342.871094 0.128906 L 342.871094 342.871094 L 0.128906 342.871094 Z M 0.128906 0.128906 " fill-opacity="1" fill-rule="nonzero"/></g></g></g></g></g></g><path fill="#0b0050" d="M 110.398438 220.820312 C 103.253906 220.820312 97.441406 215.007812 97.441406 207.863281 L 97.441406 205.640625 C 97.441406 203.007812 99.570312 200.878906 102.203125 200.878906 C 104.835938 200.878906 106.96875 203.007812 106.96875 205.640625 L 106.96875 207.863281 C 106.96875 209.753906 108.507812 211.292969 110.398438 211.292969 C 112.289062 211.292969 113.828125 209.753906 113.828125 207.863281 L 113.828125 205.640625 C 113.828125 203.007812 115.960938 200.878906 118.589844 200.878906 C 121.222656 200.878906 123.355469 203.007812 123.355469 205.640625 L 123.355469 207.863281 C 123.355469 215.007812 117.539062 220.820312 110.398438 220.820312 Z M 110.398438 220.820312 " fill-opacity="1" fill-rule="nonzero"/><path fill="#0b0050" d="M 110.398438 250.804688 C 103.253906 250.804688 97.441406 244.992188 97.441406 237.847656 L 97.441406 235.625 C 97.441406 232.996094 99.570312 230.863281 102.203125 230.863281 C 104.835938 230.863281 106.96875 232.996094 106.96875 235.625 L 106.96875 237.847656 C 106.96875 239.738281 108.507812 241.277344 110.398438 241.277344 C 112.289062 241.277344 113.828125 239.738281 113.828125 237.847656 L 113.828125 235.625 C 113.828125 232.996094 115.960938 230.863281 118.589844 230.863281 C 121.222656 230.863281 123.355469 232.996094 123.355469 235.625 L 123.355469 237.847656 C 123.355469 244.992188 117.539062 250.804688 110.398438 250.804688 Z M 110.398438 250.804688 " fill-opacity="1" fill-rule="nonzero"/><path fill="#0b0050" d="M 110.398438 280.789062 C 103.253906 280.789062 97.441406 274.976562 97.441406 267.832031 L 97.441406 265.609375 C 97.441406 262.980469 99.570312 260.847656 102.203125 260.847656 C 104.835938 260.847656 106.96875 262.980469 106.96875 265.609375 L 106.96875 267.832031 C 106.96875 269.722656 108.507812 271.261719 110.398438 271.261719 C 112.289062 271.261719 113.828125 269.722656 113.828125 267.832031 L 113.828125 265.609375 C 113.828125 262.980469 115.960938 260.847656 118.589844 260.847656 C 121.222656 260.847656 123.355469 262.980469 123.355469 265.609375 L 123.355469 267.832031 C 123.355469 274.976562 117.539062 280.789062 110.398438 280.789062 Z M 110.398438 280.789062 " fill-opacity="1" fill-rule="nonzero"/><path fill="#0b0050" d="M 143.210938 220.820312 C 136.066406 220.820312 130.253906 215.007812 130.253906 207.863281 L 130.253906 205.640625 C 130.253906 203.007812 132.386719 200.878906 135.015625 200.878906 C 137.648438 200.878906 139.78125 203.007812 139.78125 205.640625 L 139.78125 207.863281 C 139.78125 209.753906 141.320312 211.292969 143.210938 211.292969 C 145.101562 211.292969 146.640625 209.753906 146.640625 207.863281 L 146.640625 205.640625 C 146.640625 203.007812 148.773438 200.878906 151.40625 200.878906 C 154.035156 200.878906 156.167969 203.007812 156.167969 205.640625 L 156.167969 207.863281 C 156.167969 215.007812 150.355469 220.820312 143.210938 220.820312 Z M 143.210938 220.820312 " fill-opacity="1" fill-rule="nonzero"/><path fill="#0b0050" d="M 143.210938 250.804688 C 136.066406 250.804688 130.253906 244.992188 130.253906 237.847656 L 130.253906 235.625 C 130.253906 232.996094 132.386719 230.863281 135.015625 230.863281 C 137.648438 230.863281 139.78125 232.996094 139.78125 235.625 L 139.78125 237.847656 C 139.78125 239.738281 141.320312 241.277344 143.210938 241.277344 C 145.101562 241.277344 146.640625 239.738281 146.640625 237.847656 L 146.640625 235.625 C 146.640625 232.996094 148.773438 230.863281 151.40625 230.863281 C 154.035156 230.863281 156.167969 232.996094 156.167969 235.625 L 156.167969 237.847656 C 156.167969 244.992188 150.355469 250.804688 143.210938 250.804688 Z M 143.210938 250.804688 " fill-opacity="1" fill-rule="nonzero"/><path fill="#0b0050" d="M 143.210938 280.789062 C 136.066406 280.789062 130.253906 274.976562 130.253906 267.832031 L 130.253906 265.609375 C 130.253906 262.980469 132.386719 260.847656 135.015625 260.847656 C 137.648438 260.847656 139.78125 262.980469 139.78125 265.609375 L 139.78125 267.832031 C 139.78125 269.722656 141.320312 271.261719 143.210938 271.261719 C 145.101562 271.261719 146.640625 269.722656 146.640625 267.832031 L 146.640625 265.609375 C 146.640625 262.980469 148.773438 260.847656 151.40625 260.847656 C 154.035156 260.847656 156.167969 262.980469 156.167969 265.609375 L 156.167969 267.832031 C 156.167969 274.976562 150.355469 280.789062 143.210938 280.789062 Z M 143.210938 280.789062 " fill-opacity="1" fill-rule="nonzero"/><path fill="#0b0050" d="M 176.027344 220.820312 C 168.882812 220.820312 163.070312 215.007812 163.070312 207.863281 L 163.070312 205.640625 C 163.070312 203.007812 165.199219 200.878906 167.832031 200.878906 C 170.464844 200.878906 172.59375 203.007812 172.59375 205.640625 L 172.59375 207.863281 C 172.59375 209.753906 174.132812 211.292969 176.027344 211.292969 C 177.917969 211.292969 179.457031 209.753906 179.457031 207.863281 L 179.457031 205.640625 C 179.457031 203.007812 181.589844 200.878906 184.21875 200.878906 C 186.851562 200.878906 188.984375 203.007812 188.984375 205.640625 L 188.984375 207.863281 C 188.984375 215.007812 183.167969 220.820312 176.027344 220.820312 Z M 176.027344 220.820312 " fill-opacity="1" fill-rule="nonzero"/><path fill="#0b0050" d="M 176.027344 250.804688 C 168.882812 250.804688 163.070312 244.992188 163.070312 237.847656 L 163.070312 235.625 C 163.070312 232.996094 165.199219 230.863281 167.832031 230.863281 C 170.464844 230.863281 172.59375 232.996094 172.59375 235.625 L 172.59375 237.847656 C 172.59375 239.738281 174.132812 241.277344 176.027344 241.277344 C 177.917969 241.277344 179.457031 239.738281 179.457031 237.847656 L 179.457031 235.625 C 179.457031 232.996094 181.589844 230.863281 184.21875 230.863281 C 186.851562 230.863281 188.984375 232.996094 188.984375 235.625 L 188.984375 237.847656 C 188.984375 244.992188 183.167969 250.804688 176.027344 250.804688 Z M 176.027344 250.804688 " fill-opacity="1" fill-rule="nonzero"/><path fill="#0b0050" d="M 176.027344 280.789062 C 168.882812 280.789062 163.070312 274.976562 163.070312 267.832031 L 163.070312 265.609375 C 163.070312 262.980469 165.199219 260.847656 167.832031 260.847656 C 170.464844 260.847656 172.59375 262.980469 172.59375 265.609375 L 172.59375 267.832031 C 172.59375 269.722656 174.132812 271.261719 176.027344 271.261719 C 177.917969 271.261719 179.457031 269.722656 179.457031 267.832031 L 179.457031 265.609375 C 179.457031 262.980469 181.589844 260.847656 184.21875 260.847656 C 186.851562 260.847656 188.984375 262.980469 188.984375 265.609375 L 188.984375 267.832031 C 188.984375 274.976562 183.167969 280.789062 176.027344 280.789062 Z M 176.027344 280.789062 " fill-opacity="1" fill-rule="nonzero"/><path fill="#0b0050" d="M 136.0625 157.617188 C 127.183594 157.617188 119.960938 150.394531 119.960938 141.507812 C 119.960938 138.878906 122.089844 136.746094 124.722656 136.746094 C 127.355469 136.746094 129.488281 138.878906 129.488281 141.507812 C 129.488281 145.136719 132.4375 148.089844 136.0625 148.089844 C 139.691406 148.089844 142.644531 145.136719 142.644531 141.507812 C 142.644531 137.882812 139.691406 134.933594 136.0625 134.933594 C 127.183594 134.933594 119.960938 127.707031 119.960938 118.824219 C 119.960938 109.941406 127.183594 102.71875 136.0625 102.71875 C 144.949219 102.71875 152.171875 109.945312 152.171875 118.824219 C 152.171875 121.457031 150.039062 123.585938 147.410156 123.585938 C 144.777344 123.585938 142.644531 121.457031 142.644531 118.824219 C 142.644531 115.195312 139.691406 112.246094 136.0625 112.246094 C 132.4375 112.246094 129.488281 115.195312 129.488281 118.824219 C 129.488281 122.449219 132.4375 125.40625 136.0625 125.40625 C 144.949219 125.40625 152.171875 132.628906 152.171875 141.507812 C 152.171875 150.394531 144.949219 157.617188 136.0625 157.617188 Z M 136.0625 157.617188 " fill-opacity="1" fill-rule="nonzero"/><path fill="#0b0050" d="M 254.53125 242.546875 C 249.683594 242.546875 245.125 240.65625 241.699219 237.230469 L 168.386719 163.917969 C 164.960938 160.488281 163.070312 155.9375 163.070312 151.085938 C 163.070312 146.238281 164.960938 141.683594 168.386719 138.257812 L 221.648438 84.996094 C 228.726562 77.921875 240.226562 77.925781 247.304688 84.996094 L 320.625 158.308594 C 327.695312 165.382812 327.695312 176.894531 320.625 183.96875 L 267.359375 237.230469 C 263.933594 240.65625 259.375 242.546875 254.53125 242.546875 Z M 234.476562 89.207031 C 232.175781 89.207031 230.015625 90.101562 228.386719 91.730469 L 175.121094 144.996094 C 173.492188 146.621094 172.59375 148.785156 172.59375 151.085938 C 172.59375 153.390625 173.492188 155.550781 175.121094 157.179688 L 248.4375 230.496094 C 251.792969 233.859375 257.265625 233.859375 260.625 230.496094 L 313.886719 177.230469 C 315.515625 175.601562 316.410156 173.441406 316.410156 171.136719 C 316.410156 168.835938 315.515625 166.671875 313.886719 165.042969 L 240.570312 91.730469 C 238.941406 90.101562 236.777344 89.207031 234.476562 89.207031 Z M 234.476562 89.207031 " fill-opacity="1" fill-rule="nonzero"/><path fill="#0b0050" d="M 309.164062 193.457031 C 307.941406 193.457031 306.722656 192.992188 305.792969 192.0625 L 213.558594 99.820312 C 211.695312 97.960938 211.695312 94.945312 213.558594 93.082031 C 215.421875 91.21875 218.4375 91.226562 220.292969 93.082031 L 312.53125 185.324219 C 314.390625 187.183594 314.390625 190.199219 312.53125 192.0625 C 311.601562 192.992188 310.378906 193.457031 309.164062 193.457031 Z M 309.164062 193.457031 " fill-opacity="1" fill-rule="nonzero"/><path fill="#0b0050" d="M 291.355469 211.261719 C 290.136719 211.261719 288.917969 210.796875 287.988281 209.867188 L 195.75 117.628906 C 193.890625 115.769531 193.890625 112.753906 195.75 110.894531 C 197.609375 109.03125 200.625 109.03125 202.488281 110.894531 L 294.722656 203.128906 C 296.585938 204.992188 296.585938 208.007812 294.722656 209.867188 C 293.792969 210.796875 292.574219 211.261719 291.355469 211.261719 Z M 291.355469 211.261719 " fill-opacity="1" fill-rule="nonzero"/><path fill="#0b0050" d="M 192.726562 158.523438 C 191.507812 158.523438 190.289062 158.058594 189.359375 157.128906 C 187.5 155.269531 187.5 152.253906 189.359375 150.394531 L 196.558594 143.195312 C 198.425781 141.335938 201.441406 141.34375 203.296875 143.195312 C 205.15625 145.054688 205.15625 148.070312 203.296875 149.933594 L 196.09375 157.128906 C 195.164062 158.058594 193.945312 158.523438 192.726562 158.523438 Z M 192.726562 158.523438 " fill-opacity="1" fill-rule="nonzero"/><path fill="#0b0050" d="M 201.882812 167.675781 C 200.664062 167.675781 199.445312 167.210938 198.515625 166.28125 C 196.652344 164.421875 196.652344 161.40625 198.515625 159.546875 L 205.710938 152.347656 C 207.574219 150.488281 210.585938 150.488281 212.449219 152.347656 C 214.308594 154.207031 214.308594 157.222656 212.449219 159.085938 L 205.25 166.28125 C 204.320312 167.210938 203.097656 167.675781 201.882812 167.675781 Z M 201.882812 167.675781 " fill-opacity="1" fill-rule="nonzero"/><path fill="#0b0050" d="M 211.035156 176.828125 C 209.816406 176.828125 208.597656 176.363281 207.664062 175.433594 C 205.804688 173.570312 205.804688 170.558594 207.664062 168.695312 L 214.863281 161.5 C 216.722656 159.636719 219.738281 159.636719 221.601562 161.5 C 223.460938 163.359375 223.460938 166.375 221.601562 168.234375 L 214.402344 175.433594 C 213.472656 176.363281 212.25 176.828125 211.035156 176.828125 Z M 211.035156 176.828125 " fill-opacity="1" fill-rule="nonzero"/><g clip-path="url(#6f143b445a)"><path fill="#0b0050" d="M 196.777344 190.335938 L 86.457031 190.335938 C 79.84375 190.335938 74.464844 184.957031 74.464844 178.34375 L 74.464844 81.988281 C 74.464844 75.378906 79.84375 69.996094 86.457031 69.996094 L 199.96875 69.996094 C 206.582031 69.996094 211.960938 75.378906 211.960938 81.988281 L 211.960938 106.179688 C 211.960938 107.445312 211.457031 108.652344 210.566406 109.546875 L 175.121094 144.996094 C 173.492188 146.621094 172.59375 148.785156 172.59375 151.085938 C 172.59375 153.390625 173.492188 155.550781 175.121094 157.179688 L 200.144531 182.203125 C 201.507812 183.566406 201.914062 185.613281 201.175781 187.394531 C 200.441406 189.171875 198.703125 190.335938 196.777344 190.335938 Z M 86.457031 79.523438 C 85.09375 79.523438 83.992188 80.628906 83.992188 81.988281 L 83.992188 178.34375 C 83.992188 179.703125 85.09375 180.808594 86.457031 180.808594 L 185.277344 180.808594 L 168.386719 163.917969 C 164.960938 160.488281 163.070312 155.933594 163.070312 151.085938 C 163.070312 146.238281 164.960938 141.683594 168.386719 138.257812 L 202.433594 104.207031 L 202.433594 81.988281 C 202.433594 80.628906 201.328125 79.523438 199.96875 79.523438 Z M 86.457031 79.523438 " fill-opacity="1" fill-rule="nonzero"/></g><path fill="#0b0050" d="M 179.617188 173.175781 L 97.054688 173.175781 C 94.425781 173.175781 92.292969 171.042969 92.292969 168.414062 L 92.292969 92.269531 C 92.292969 89.636719 94.425781 87.503906 97.054688 87.503906 L 189.367188 87.503906 C 192 87.503906 194.128906 89.636719 194.128906 92.269531 L 194.128906 124.007812 C 194.128906 125.273438 193.628906 126.480469 192.734375 127.378906 L 175.121094 144.996094 C 173.492188 146.621094 172.59375 148.785156 172.59375 151.085938 C 172.59375 153.390625 173.492188 155.550781 175.121094 157.179688 L 182.988281 165.042969 C 184.347656 166.410156 184.753906 168.457031 184.019531 170.234375 C 183.28125 172.015625 181.546875 173.175781 179.617188 173.175781 Z M 101.820312 163.648438 L 168.125 163.648438 C 164.863281 160.253906 163.070312 155.808594 163.070312 151.085938 C 163.070312 146.238281 164.960938 141.683594 168.386719 138.257812 L 184.601562 122.035156 L 184.601562 97.03125 L 101.820312 97.03125 Z M 101.820312 163.648438 " fill-opacity="1" fill-rule="nonzero"/><g clip-path="url(#a34de2b747)"><path fill="#0b0050" d="M 193.808594 301.910156 L 92.613281 301.910156 C 89.683594 301.910156 86.933594 300.765625 84.863281 298.695312 C 82.792969 296.625 81.652344 293.871094 81.65625 290.945312 L 81.691406 185.574219 C 81.691406 182.941406 83.828125 180.808594 86.457031 180.808594 L 196.777344 180.808594 C 198.042969 180.808594 199.253906 181.3125 200.148438 182.207031 L 203.335938 185.402344 C 204.226562 186.292969 204.730469 187.503906 204.730469 188.765625 L 204.769531 290.949219 C 204.769531 296.992188 199.851562 301.910156 193.808594 301.910156 Z M 91.214844 190.335938 L 91.183594 290.949219 C 91.183594 291.441406 91.410156 291.773438 91.597656 291.964844 C 91.792969 292.152344 92.121094 292.382812 92.613281 292.382812 L 193.808594 292.382812 C 194.597656 292.382812 195.242188 291.738281 195.242188 290.949219 L 195.203125 190.738281 L 194.804688 190.335938 Z M 91.214844 190.335938 " fill-opacity="1" fill-rule="nonzero"/></g><path fill="#0b0050" d="M 220.21875 280.789062 L 200 280.789062 C 197.367188 280.789062 195.234375 278.65625 195.234375 276.027344 C 195.234375 273.394531 197.367188 271.261719 200 271.261719 L 220.21875 271.261719 C 222.121094 271.261719 223.667969 269.714844 223.667969 267.8125 L 223.667969 219.199219 L 200.113281 195.640625 C 198.25 193.78125 198.25 190.765625 200.113281 188.90625 C 201.976562 187.042969 204.992188 187.046875 206.847656 188.90625 L 231.796875 213.859375 C 232.6875 214.753906 233.191406 215.964844 233.191406 217.226562 L 233.191406 267.8125 C 233.191406 274.96875 227.371094 280.789062 220.21875 280.789062 Z M 220.21875 280.789062 " fill-opacity="1" fill-rule="nonzero"/><g clip-path="url(#e636439b37)"><path fill="#ffffff" d="M 260.671875 255.285156 L 260.671875 249.039062 C 260.671875 236.269531 250.277344 225.871094 237.503906 225.871094 C 224.734375 225.871094 214.332031 236.265625 214.332031 249.039062 L 214.332031 255.285156 C 210.835938 255.378906 208.023438 258.230469 208.023438 261.75 L 208.023438 295.5 C 208.023438 295.925781 208.066406 296.347656 208.148438 296.765625 C 208.230469 297.183594 208.355469 297.589844 208.515625 297.984375 C 208.679688 298.375 208.878906 298.75 209.117188 299.101562 C 209.351562 299.457031 209.621094 299.785156 209.921875 300.085938 C 210.222656 300.386719 210.550781 300.65625 210.90625 300.890625 C 211.257812 301.128906 211.632812 301.328125 212.023438 301.492188 C 212.417969 301.65625 212.824219 301.777344 213.242188 301.859375 C 213.660156 301.945312 214.082031 301.984375 214.507812 301.984375 L 260.5 301.984375 C 260.925781 301.984375 261.347656 301.945312 261.765625 301.859375 C 262.183594 301.777344 262.589844 301.65625 262.980469 301.492188 C 263.375 301.328125 263.75 301.128906 264.101562 300.894531 C 264.457031 300.65625 264.785156 300.386719 265.085938 300.085938 C 265.386719 299.785156 265.65625 299.457031 265.890625 299.105469 C 266.128906 298.75 266.328125 298.375 266.492188 297.984375 C 266.652344 297.589844 266.777344 297.183594 266.859375 296.765625 C 266.941406 296.347656 266.984375 295.925781 266.984375 295.503906 L 266.984375 261.75 C 266.984375 258.230469 264.171875 255.378906 260.671875 255.285156 Z M 242.808594 273.960938 C 242.777344 274.164062 242.664062 274.621094 242.65625 274.65625 C 242.257812 276.027344 241.3125 277.152344 240.085938 277.839844 L 242.167969 286.710938 C 242.226562 286.898438 242.242188 287.085938 242.214844 287.28125 C 242.1875 287.472656 242.113281 287.652344 242.003906 287.808594 C 241.890625 287.96875 241.746094 288.09375 241.574219 288.1875 C 241.402344 288.28125 241.21875 288.328125 241.023438 288.332031 L 234.125 288.332031 C 233.929688 288.328125 233.746094 288.28125 233.574219 288.1875 C 233.402344 288.09375 233.257812 287.96875 233.148438 287.808594 C 233.035156 287.652344 232.964844 287.472656 232.933594 287.28125 C 232.90625 287.085938 232.921875 286.898438 232.984375 286.710938 L 234.921875 277.839844 C 233.695312 277.152344 232.746094 276.027344 232.351562 274.65625 C 232.34375 274.621094 232.230469 274.164062 232.199219 273.960938 C 232.164062 273.714844 232.144531 273.464844 232.144531 273.214844 C 232.144531 272.863281 232.179688 272.515625 232.246094 272.167969 C 232.316406 271.824219 232.417969 271.488281 232.550781 271.164062 C 232.6875 270.839844 232.851562 270.53125 233.046875 270.238281 C 233.242188 269.945312 233.464844 269.671875 233.714844 269.425781 C 233.960938 269.175781 234.234375 268.953125 234.527344 268.757812 C 234.820312 268.5625 235.128906 268.398438 235.453125 268.261719 C 235.777344 268.128906 236.113281 268.027344 236.457031 267.957031 C 236.804688 267.890625 237.152344 267.855469 237.503906 267.855469 C 237.855469 267.855469 238.203125 267.890625 238.550781 267.957031 C 238.894531 268.027344 239.230469 268.128906 239.554688 268.261719 C 239.878906 268.398438 240.1875 268.5625 240.480469 268.757812 C 240.773438 268.953125 241.042969 269.175781 241.292969 269.425781 C 241.542969 269.671875 241.765625 269.945312 241.960938 270.238281 C 242.15625 270.53125 242.320312 270.839844 242.453125 271.164062 C 242.589844 271.488281 242.691406 271.824219 242.757812 272.167969 C 242.828125 272.515625 242.863281 272.863281 242.863281 273.214844 C 242.863281 273.464844 242.84375 273.714844 242.808594 273.960938 Z M 252.761719 255.269531 L 222.242188 255.269531 L 222.242188 249.039062 C 222.242188 240.625 229.085938 233.78125 237.503906 233.78125 C 245.921875 233.78125 252.761719 240.625 252.761719 249.039062 Z M 252.761719 255.269531 " fill-opacity="1" fill-rule="nonzero"/></g></svg>