<svg xmlns="http://www.w3.org/2000/svg" xmlns:xlink="http://www.w3.org/1999/xlink" width="500" zoomAndPan="magnify" viewBox="0 0 375 374.999991" height="500" preserveAspectRatio="xMidYMid meet" version="1.0"><defs><clipPath id="3538b46f73"><path d="M 187.5 0 C 83.945312 0 0 83.945312 0 187.5 C 0 291.054688 83.945312 375 187.5 375 C 291.054688 375 375 291.054688 375 187.5 C 375 83.945312 291.054688 0 187.5 0 Z M 187.5 0 " clip-rule="nonzero"/></clipPath><clipPath id="7585897051"><path d="M 0 0 L 375 0 L 375 375 L 0 375 Z M 0 0 " clip-rule="nonzero"/></clipPath><clipPath id="3f5d0e5a98"><path d="M 187.5 0 C 83.945312 0 0 83.945312 0 187.5 C 0 291.054688 83.945312 375 187.5 375 C 291.054688 375 375 291.054688 375 187.5 C 375 83.945312 291.054688 0 187.5 0 Z M 187.5 0 " clip-rule="nonzero"/></clipPath><clipPath id="89bce3fc4d"><rect x="0" width="375" y="0" height="375"/></clipPath><clipPath id="377cfa5eaf"><path d="M 16.128906 16.128906 L 358.871094 16.128906 L 358.871094 358.871094 L 16.128906 358.871094 Z M 16.128906 16.128906 " clip-rule="nonzero"/></clipPath><clipPath id="e5a0f5ed17"><path d="M 187.5 16.128906 C 92.855469 16.128906 16.128906 92.855469 16.128906 187.5 C 16.128906 282.144531 92.855469 358.871094 187.5 358.871094 C 282.144531 358.871094 358.871094 282.144531 358.871094 187.5 C 358.871094 92.855469 282.144531 16.128906 187.5 16.128906 Z M 187.5 16.128906 " clip-rule="nonzero"/></clipPath><clipPath id="5d13657c55"><path d="M 0.128906 0.128906 L 342.871094 0.128906 L 342.871094 342.871094 L 0.128906 342.871094 Z M 0.128906 0.128906 " clip-rule="nonzero"/></clipPath><clipPath id="8a508c85f8"><path d="M 171.5 0.128906 C 76.855469 0.128906 0.128906 76.855469 0.128906 171.5 C 0.128906 266.144531 76.855469 342.871094 171.5 342.871094 C 266.144531 342.871094 342.871094 266.144531 342.871094 171.5 C 342.871094 76.855469 266.144531 0.128906 171.5 0.128906 Z M 171.5 0.128906 " clip-rule="nonzero"/></clipPath><clipPath id="e7a61d0b98"><rect x="0" width="343" y="0" height="343"/></clipPath><clipPath id="886a05bebd"><path d="M 94 128 L 298.546875 128 L 298.546875 242 L 94 242 Z M 94 128 " clip-rule="nonzero"/></clipPath><clipPath id="81066057ac"><path d="M 52.546875 86.195312 L 288 86.195312 L 288 275 L 52.546875 275 Z M 52.546875 86.195312 " clip-rule="nonzero"/></clipPath><clipPath id="9d70e08646"><path d="M 245 279 L 283 279 L 283 317.945312 L 245 317.945312 Z M 245 279 " clip-rule="nonzero"/></clipPath><clipPath id="5626e2a0ce"><path d="M 120 279 L 158 279 L 158 317.945312 L 120 317.945312 Z M 120 279 " clip-rule="nonzero"/></clipPath><clipPath id="d5cd1a136e"><path d="M 150.851562 145.378906 L 224 145.378906 L 224 229.378906 L 150.851562 229.378906 Z M 150.851562 145.378906 " clip-rule="nonzero"/></clipPath></defs><g clip-path="url(#3538b46f73)"><g transform="matrix(1, 0, 0, 1, 0, 0)"><g clip-path="url(#89bce3fc4d)"><g clip-path="url(#7585897051)"><g clip-path="url(#3f5d0e5a98)"><rect x="-82.5" width="540" fill="#0f0069" height="539.999987" y="-82.499998" fill-opacity="1"/></g></g></g></g></g><g clip-path="url(#377cfa5eaf)"><g clip-path="url(#e5a0f5ed17)"><g transform="matrix(1, 0, 0, 1, 16, 16)"><g clip-path="url(#e7a61d0b98)"><g clip-path="url(#5d13657c55)"><g clip-path="url(#8a508c85f8)"><path fill="#004aad" d="M 0.128906 0.128906 L 342.871094 0.128906 L 342.871094 342.871094 L 0.128906 342.871094 Z M 0.128906 0.128906 " fill-opacity="1" fill-rule="nonzero"/></g></g></g></g></g></g><g clip-path="url(#886a05bebd)"><path fill="#090042" d="M 196.121094 128.925781 C 226.261719 128.925781 256.402344 128.921875 286.546875 128.90625 C 289.152344 128.90625 291.644531 129.03125 293.949219 130.457031 C 296.820312 132.238281 298.640625 135.851562 298.0625 139.136719 C 295.984375 150.886719 293.832031 162.625 291.761719 174.386719 C 289.175781 188.988281 286.609375 203.589844 284.054688 218.199219 C 283.847656 219.371094 283.539062 220.527344 283.253906 221.6875 C 282.042969 226.597656 279.378906 229.027344 274.402344 229.441406 C 264.695312 230.238281 254.980469 230.875 245.28125 231.683594 C 234.910156 232.546875 224.550781 233.535156 214.179688 234.453125 C 209.757812 234.84375 205.335938 235.203125 200.910156 235.535156 C 190.335938 236.320312 179.785156 237.042969 169.226562 237.859375 C 156.121094 238.867188 143.019531 239.910156 129.917969 240.996094 C 126.6875 241.253906 123.464844 241.777344 120.238281 241.824219 C 115.632812 241.886719 112.398438 239.355469 111.464844 234.792969 C 109.953125 227.457031 108.71875 220.054688 107.378906 212.683594 C 104.355469 196.082031 101.339844 179.484375 98.328125 162.878906 C 96.960938 155.339844 95.578125 147.796875 94.246094 140.25 C 93.152344 134.039062 97.214844 129.160156 103.644531 128.96875 C 106.382812 128.890625 109.125 128.953125 111.863281 128.953125 Z M 158.863281 171.960938 L 150.152344 171.960938 C 149.980469 171.960938 149.800781 171.960938 149.644531 171.960938 C 145.3125 171.941406 144.878906 171.414062 145.238281 176.3125 C 145.667969 182.089844 146.066406 187.867188 146.542969 193.636719 C 146.757812 196.144531 147.328125 196.582031 149.769531 196.425781 C 153.847656 196.160156 157.925781 195.878906 162 195.582031 C 164.707031 195.378906 167.414062 195.0625 170.125 194.898438 C 171.890625 194.792969 173.136719 194.519531 172.414062 192.230469 C 172.117188 191.292969 172.308594 190.195312 172.292969 189.167969 C 172.214844 184.234375 172.09375 179.269531 172.085938 174.316406 C 172.085938 172.535156 171.332031 171.914062 169.621094 171.945312 C 166.039062 172.007812 162.457031 171.960938 158.863281 171.960938 Z M 197.070312 140.171875 C 192.980469 140.171875 188.882812 140.21875 184.789062 140.152344 C 183.074219 140.125 182.28125 140.714844 182.378906 142.515625 C 182.6875 148.292969 182.925781 154.074219 183.199219 159.855469 C 183.257812 161.113281 183.960938 161.617188 185.183594 161.617188 C 187.230469 161.601562 189.277344 161.617188 191.324219 161.617188 C 196.960938 161.617188 202.601562 161.597656 208.214844 161.617188 C 209.8125 161.617188 210.933594 161.101562 210.972656 159.371094 C 211.101562 153.566406 211.1875 147.769531 211.261719 141.96875 C 211.261719 140.738281 210.632812 140.144531 209.355469 140.152344 C 205.265625 140.191406 201.167969 140.171875 197.070312 140.171875 Z M 237.941406 140.171875 C 233.84375 140.171875 229.753906 140.207031 225.65625 140.171875 C 223.84375 140.152344 222.660156 140.726562 222.628906 142.726562 C 222.539062 148.367188 222.472656 153.988281 222.367188 159.617188 C 222.339844 161.183594 223.152344 161.648438 224.585938 161.644531 C 232.433594 161.621094 240.28125 161.644531 248.132812 161.644531 C 249.289062 161.644531 250.125 161.21875 250.21875 159.941406 C 250.648438 154.171875 251.042969 148.402344 251.496094 142.636719 C 251.628906 140.914062 250.992188 140.140625 249.199219 140.167969 C 245.449219 140.222656 241.695312 140.175781 237.941406 140.171875 Z M 156.984375 140.171875 C 152.890625 140.171875 148.792969 140.121094 144.699219 140.191406 C 142.230469 140.226562 142.074219 140.320312 142.230469 142.878906 C 142.554688 148.320312 143.058594 153.746094 143.460938 159.179688 C 143.609375 161.179688 144.796875 161.648438 146.589844 161.648438 C 153.929688 161.597656 161.273438 161.578125 168.609375 161.664062 C 170.578125 161.6875 171.394531 161.035156 171.347656 159.042969 C 171.207031 153.582031 171.085938 148.113281 171.117188 142.65625 C 171.117188 140.480469 170.035156 140.132812 168.253906 140.160156 C 164.496094 140.207031 160.742188 140.167969 156.984375 140.171875 Z M 197.238281 171.964844 C 193.476562 171.964844 189.710938 172 185.957031 171.945312 C 184.367188 171.925781 183.324219 172.238281 183.421875 174.167969 C 183.734375 180.300781 183.972656 186.441406 184.25 192.578125 C 184.304688 193.789062 184.875 194.441406 186.183594 194.367188 C 192.316406 194.011719 198.453125 193.710938 204.585938 193.339844 C 205.773438 193.265625 206.933594 192.902344 208.113281 192.792969 C 209.671875 192.652344 210.042969 191.734375 210.054688 190.355469 C 210.105469 185.066406 210.117188 179.746094 210.308594 174.449219 C 210.390625 172.253906 209.316406 171.902344 207.507812 171.9375 C 204.082031 172.007812 200.660156 171.957031 197.238281 171.964844 Z M 235.699219 171.964844 C 231.765625 171.964844 227.835938 171.980469 223.902344 171.964844 C 222.519531 171.964844 221.625 172.316406 221.609375 173.949219 C 221.558594 179.417969 221.453125 184.875 221.363281 190.363281 C 221.339844 191.914062 222.066406 192.402344 223.605469 192.296875 C 228.890625 191.945312 234.164062 191.722656 239.4375 191.378906 C 241.472656 191.25 243.492188 190.871094 245.527344 190.722656 C 246.808594 190.628906 247.316406 189.921875 247.492188 188.804688 C 247.699219 187.460938 247.941406 186.121094 248.066406 184.769531 C 248.382812 181.375 248.601562 177.972656 248.9375 174.585938 C 249.160156 172.355469 248.96875 172.023438 246.472656 171.976562 C 242.882812 171.90625 239.300781 171.953125 235.699219 171.953125 Z M 122.804688 171.964844 C 120.402344 171.964844 118.003906 171.929688 115.609375 171.964844 C 112.121094 172.027344 111.925781 172.082031 112.410156 175.390625 C 113.40625 182.136719 114.609375 188.847656 115.785156 195.5625 C 115.996094 196.785156 116.59375 197.863281 118.125 197.804688 C 122.914062 197.640625 127.710938 197.597656 132.484375 197.230469 C 135.011719 197.039062 135.304688 196.527344 135.152344 193.898438 C 134.78125 187.929688 134.277344 181.96875 133.800781 176.007812 C 133.761719 175.503906 133.449219 175.023438 133.417969 174.523438 C 133.289062 172.679688 132.523438 171.792969 130.503906 171.917969 C 127.945312 172.078125 125.371094 171.957031 122.804688 171.953125 Z M 173.347656 216.09375 L 173.074219 216.09375 C 173.074219 213.1875 173.105469 210.273438 173.074219 207.367188 C 173.050781 205.636719 172.148438 204.992188 170.394531 205.25 C 168.371094 205.53125 166.324219 205.636719 164.28125 205.777344 C 159.699219 206.09375 155.089844 206.445312 150.488281 206.660156 C 148.664062 206.746094 148.128906 207.585938 148.265625 209.25 C 148.71875 214.863281 149.128906 220.484375 149.5625 226.101562 C 149.699219 227.863281 151 227.769531 152.203125 227.691406 C 158.507812 227.28125 164.808594 226.796875 171.113281 226.441406 C 172.945312 226.335938 173.410156 225.421875 173.375 223.808594 C 173.308594 221.230469 173.347656 218.660156 173.347656 216.09375 Z M 118.222656 140.175781 C 114.984375 140.175781 111.75 140.230469 108.511719 140.15625 C 106.6875 140.113281 106.046875 140.859375 106.363281 142.621094 C 107.382812 148.121094 108.441406 153.617188 109.363281 159.132812 C 109.683594 161.070312 110.703125 161.65625 112.5 161.644531 C 118.292969 161.601562 124.085938 161.585938 129.878906 161.644531 C 131.746094 161.660156 132.226562 160.757812 132.089844 159.117188 C 131.652344 153.699219 131.210938 148.277344 130.832031 142.855469 C 130.703125 140.964844 129.859375 140.117188 127.9375 140.15625 C 124.699219 140.226562 121.460938 140.175781 118.222656 140.175781 Z M 209.269531 213.796875 C 209.269531 210.605469 209.300781 207.691406 209.269531 204.78125 C 209.269531 203.578125 208.71875 203.082031 207.324219 203.1875 C 202.554688 203.542969 197.765625 203.675781 192.988281 203.976562 C 190.785156 204.117188 188.59375 204.523438 186.386719 204.660156 C 184.792969 204.753906 184.410156 205.5625 184.4375 206.976562 C 184.546875 211.773438 184.570312 216.570312 184.679688 221.363281 C 184.699219 222.203125 184.789062 223.148438 185.199219 223.832031 C 185.550781 224.410156 186.414062 225.066406 187.027344 225.035156 C 191.289062 224.84375 195.554688 224.582031 199.800781 224.136719 C 202.800781 223.820312 205.769531 223.1875 208.75 222.691406 C 208.917969 219.628906 209.101562 216.570312 209.269531 213.796875 Z M 220.546875 212.652344 L 220.410156 212.652344 C 220.410156 214.875 220.386719 217.097656 220.410156 219.320312 C 220.453125 222.285156 220.480469 222.417969 223.171875 222.203125 C 229.792969 221.667969 236.40625 220.988281 243.019531 220.378906 C 244.15625 220.273438 244.921875 219.90625 245.019531 218.582031 C 245.371094 213.824219 245.863281 209.066406 246.125 204.308594 C 246.300781 201.273438 245.886719 201.015625 243.03125 201.289062 C 241.335938 201.449219 239.636719 201.585938 237.933594 201.640625 C 234.347656 201.78125 230.742188 201.699219 227.171875 202.015625 C 220.644531 202.597656 220.652344 202.6875 220.546875 209.066406 C 220.535156 210.25 220.550781 211.445312 220.550781 212.644531 Z M 275.011719 140.175781 C 272.269531 140.175781 269.535156 140.140625 266.796875 140.175781 C 263.777344 140.222656 263.550781 140.226562 263.183594 143.105469 C 262.5 148.511719 262.125 153.953125 261.589844 159.382812 C 261.449219 160.851562 262.003906 161.621094 263.574219 161.613281 C 269.050781 161.59375 274.523438 161.574219 280 161.636719 C 281.878906 161.65625 282.761719 160.890625 283.070312 159.027344 C 283.984375 153.484375 285.011719 147.960938 286.027344 142.4375 C 286.296875 140.949219 285.882812 140.148438 284.261719 140.160156 C 281.167969 140.195312 278.078125 140.175781 275.011719 140.175781 Z M 138.058594 225.832031 C 137.6875 220.898438 137.328125 215.964844 136.921875 211.027344 C 136.863281 210.359375 136.5 209.714844 136.425781 209.042969 C 136.265625 207.53125 135.488281 207.046875 134.007812 207.160156 C 129.75 207.492188 125.484375 207.726562 121.226562 208.007812 C 118.574219 208.183594 118.234375 208.5 118.671875 211.105469 C 119.636719 216.820312 120.722656 222.515625 121.734375 228.222656 C 121.980469 229.632812 122.695312 230.378906 124.15625 230.265625 C 127.730469 229.988281 131.304688 229.695312 134.878906 229.421875 C 138.226562 229.164062 138.226562 229.175781 138.058594 225.847656 Z M 270.816406 171.957031 C 268.078125 171.957031 265.335938 171.988281 262.601562 171.957031 C 261.09375 171.933594 260.519531 172.628906 260.40625 174.09375 C 260.054688 178.675781 259.59375 183.257812 259.195312 187.863281 C 259.019531 189.855469 259.449219 190.328125 261.3125 190.183594 C 264.035156 189.984375 266.746094 189.691406 269.464844 189.511719 C 271.511719 189.382812 273.59375 189.511719 275.613281 189.226562 C 276.429688 189.105469 277.640625 188.253906 277.789062 187.546875 C 278.707031 183.214844 279.371094 178.832031 280.125 174.464844 C 280.414062 172.773438 279.855469 171.886719 278.011719 171.941406 C 275.609375 172.011719 273.210938 171.957031 270.816406 171.957031 Z M 259.824219 219.226562 C 263.507812 218.875 266.898438 218.523438 270.296875 218.246094 C 271.675781 218.132812 272.539062 217.542969 272.765625 216.132812 C 273.621094 211.09375 274.5 206.0625 275.273438 201.015625 C 275.339844 200.617188 274.6875 199.710938 274.398438 199.722656 C 269.285156 199.957031 264.179688 200.257812 259.078125 200.621094 C 257.789062 200.71875 257.644531 201.824219 257.554688 202.910156 C 257.234375 206.988281 256.847656 211.0625 256.523438 215.144531 C 256.453125 215.996094 256.257812 216.910156 256.523438 217.683594 C 256.726562 218.300781 257.449219 218.894531 258.082031 219.167969 C 258.660156 219.4375 259.429688 219.226562 259.824219 219.226562 Z M 259.824219 219.226562 " fill-opacity="1" fill-rule="nonzero"/></g><g clip-path="url(#81066057ac)"><path fill="#090042" d="M 200.242188 274.867188 C 174.027344 274.867188 147.804688 274.808594 121.59375 274.917969 C 116.308594 274.9375 111.941406 273.398438 108.289062 269.558594 C 103.160156 264.167969 102.777344 255.621094 106.429688 249.023438 C 107.753906 246.632812 109.25 244.324219 110.417969 241.859375 C 110.996094 240.636719 111.195312 239.355469 111.015625 238.015625 C 107.53125 218.378906 103.902344 198.761719 100.414062 179.128906 C 97.179688 160.996094 94.070312 142.84375 90.878906 124.699219 C 89.824219 118.652344 88.714844 112.613281 87.734375 106.554688 C 87.355469 104.25 86.324219 103.027344 83.886719 102.628906 C 77.152344 101.53125 70.453125 100.191406 63.753906 98.953125 C 61.742188 98.582031 59.707031 98.316406 57.714844 97.875 C 54.542969 97.171875 52.558594 94.535156 52.882812 91.605469 C 53.238281 88.542969 56.058594 86.25 59.515625 86.667969 C 63.746094 87.203125 67.929688 88.050781 72.128906 88.8125 C 79.507812 90.148438 86.875 91.566406 94.273438 92.839844 C 96.058594 93.144531 96.917969 93.851562 97.21875 95.703125 C 98.042969 100.75 99.082031 105.757812 100 110.789062 C 102.710938 125.71875 105.457031 140.644531 108.085938 155.589844 C 111.367188 174.234375 114.515625 192.902344 117.78125 211.550781 C 119.367188 220.613281 121.078125 229.660156 122.761719 238.691406 C 123.207031 241.078125 123.148438 243.203125 121.667969 245.390625 C 119.675781 248.363281 118.351562 251.777344 116.378906 254.769531 C 114.03125 258.34375 116.15625 264 121.601562 263.511719 C 122.789062 263.40625 124 263.511719 125.195312 263.511719 L 278.378906 263.511719 C 279.75 263.511719 281.140625 263.402344 282.484375 263.597656 C 282.847656 263.648438 283.199219 263.734375 283.546875 263.851562 C 283.894531 263.96875 284.222656 264.121094 284.542969 264.304688 C 284.859375 264.488281 285.15625 264.699219 285.429688 264.941406 C 285.707031 265.179688 285.957031 265.445312 286.183594 265.734375 C 286.40625 266.023438 286.601562 266.332031 286.769531 266.65625 C 286.933594 266.984375 287.066406 267.324219 287.167969 267.675781 C 287.265625 268.027344 287.332031 268.386719 287.363281 268.75 C 287.390625 269.117188 287.386719 269.480469 287.347656 269.84375 C 287.070312 272.933594 285.25 274.65625 281.96875 274.84375 C 280.605469 274.921875 279.230469 274.871094 277.859375 274.871094 Z M 200.242188 274.867188 " fill-opacity="1" fill-rule="nonzero"/></g><g clip-path="url(#9d70e08646)"><path fill="#090042" d="M 245.097656 298.691406 C 244.390625 289.878906 252.851562 279.5625 263.753906 279.734375 C 274.136719 279.898438 282.746094 287.179688 282.890625 298.242188 C 283.035156 308.679688 275.84375 317.519531 263.972656 317.519531 C 251.640625 317.515625 244.675781 307.246094 245.097656 298.691406 Z M 264.132812 290.035156 C 259.011719 290.035156 255.257812 293.714844 255.34375 298.6875 C 255.425781 303.457031 259.476562 307.351562 264.367188 307.355469 C 268.371094 307.355469 272.789062 302.679688 272.753906 298.46875 C 272.703125 293.972656 268.695312 290.050781 264.117188 290.035156 Z M 264.132812 290.035156 " fill-opacity="1" fill-rule="nonzero"/></g><g clip-path="url(#5626e2a0ce)"><path fill="#090042" d="M 157.90625 298.75 C 157.863281 309.078125 149.472656 317.730469 139.550781 317.683594 C 128.726562 317.628906 120.71875 309.265625 120.414062 298.40625 C 120.132812 288.324219 129.226562 279.566406 139.332031 279.644531 C 149.03125 279.730469 158.804688 288.636719 157.90625 298.75 Z M 147.652344 299.21875 C 147.871094 294.28125 144.621094 290.339844 140.097656 290.050781 C 134.929688 289.738281 131.066406 293.089844 130.75 297.953125 C 130.421875 302.949219 133.761719 306.917969 138.855469 307.183594 C 139.410156 307.222656 139.960938 307.203125 140.507812 307.132812 C 141.058594 307.058594 141.59375 306.929688 142.117188 306.75 C 142.640625 306.566406 143.140625 306.335938 143.617188 306.054688 C 144.09375 305.769531 144.539062 305.445312 144.949219 305.070312 C 145.359375 304.699219 145.730469 304.292969 146.054688 303.84375 C 146.382812 303.398438 146.664062 302.921875 146.898438 302.421875 C 147.128906 301.917969 147.308594 301.394531 147.4375 300.855469 C 147.5625 300.316406 147.632812 299.769531 147.652344 299.21875 Z M 147.652344 299.21875 " fill-opacity="1" fill-rule="nonzero"/></g><g clip-path="url(#d5cd1a136e)"><path fill="#ffffff" d="M 187.628906 152.921875 C 187.839844 152.921875 188.027344 153.019531 188.265625 153.199219 C 192.351562 156.296875 196.878906 158.738281 201.726562 160.457031 C 206.246094 162.0625 211.214844 163.09375 216.492188 163.527344 L 216.503906 163.527344 C 216.851562 163.5625 217.125 163.855469 217.128906 164.21875 C 217.242188 172.128906 216.132812 180.105469 213.824219 187.933594 C 209.703125 201.902344 201.589844 212.992188 189.707031 220.886719 C 187.980469 222.035156 186.820312 222.105469 185.105469 221.15625 C 169.53125 212.515625 160.757812 198.816406 158.269531 179.277344 C 157.671875 174.609375 157.476562 169.824219 157.671875 164.648438 C 157.695312 164.050781 158.140625 163.558594 158.730469 163.480469 C 164.414062 162.707031 170.441406 161.746094 176.179688 159.226562 C 179.75 157.660156 183.175781 155.746094 186.351562 153.546875 C 186.96875 153.117188 187.320312 152.921875 187.628906 152.921875 Z M 223.792969 163.800781 C 223.761719 162.464844 223.667969 161.050781 223.042969 159.808594 C 222.308594 158.359375 221.054688 157.371094 219.195312 156.789062 C 217.699219 156.320312 216.035156 156.191406 214.570312 156.070312 L 214.546875 156.070312 C 207.460938 155.5 200.554688 153.039062 194.574219 148.945312 C 194.386719 148.816406 194.199219 148.691406 194.011719 148.558594 C 192.183594 147.292969 190.289062 145.976562 187.984375 145.867188 C 185.394531 145.738281 183.113281 147.21875 181.101562 148.527344 C 180.933594 148.636719 180.765625 148.742188 180.605469 148.851562 C 175.949219 151.84375 170.875 154.003906 165.515625 155.269531 C 163.160156 155.828125 160.632812 156.203125 157.5625 156.453125 C 154.65625 156.6875 152.613281 158.007812 151.660156 160.265625 C 150.992188 161.839844 150.902344 163.527344 150.867188 165.269531 C 150.835938 166.59375 150.832031 167.925781 150.847656 169.21875 C 151.03125 184.175781 154.167969 196.800781 160.171875 206.75 C 162.546875 210.6875 165.503906 214.398438 168.957031 217.789062 C 172.191406 220.964844 175.867188 223.863281 179.890625 226.417969 C 182.125 227.832031 184.546875 229.132812 187.167969 229.132812 C 187.320312 229.132812 187.476562 229.128906 187.628906 229.117188 C 189.929688 228.984375 191.988281 227.832031 193.867188 226.609375 C 198.730469 223.441406 203.1875 219.460938 207.121094 214.777344 C 210.957031 210.203125 214.207031 205.0625 216.765625 199.503906 C 221.722656 188.757812 224.152344 176.414062 223.792969 163.800781 " fill-opacity="1" fill-rule="nonzero"/></g><path fill="#ffffff" d="M 203.042969 180.308594 C 202.980469 180.710938 202.683594 181.019531 202.398438 181.304688 C 196.492188 187.210938 190.601562 193.121094 184.703125 199.027344 C 184.199219 199.527344 183.566406 200.074219 182.875 199.914062 C 182.492188 199.828125 182.195312 199.539062 181.917969 199.261719 C 178.738281 196.074219 175.554688 192.894531 172.375 189.707031 C 172.003906 189.335938 171.609375 188.90625 171.609375 188.382812 C 171.613281 187.875 171.996094 187.453125 172.355469 187.089844 C 173.316406 186.117188 174.277344 185.144531 175.242188 184.171875 C 175.625 183.785156 176.066406 183.371094 176.609375 183.351562 C 177.214844 183.320312 177.714844 183.78125 178.140625 184.210938 C 179.828125 185.898438 181.511719 187.589844 183.195312 189.273438 C 187.65625 184.800781 192.121094 180.328125 196.582031 175.855469 C 196.964844 175.472656 197.398438 175.070312 197.9375 175.046875 C 198.535156 175.027344 199.023438 175.480469 199.445312 175.902344 C 200.375 176.84375 201.3125 177.789062 202.25 178.730469 C 202.679688 179.167969 203.144531 179.707031 203.042969 180.308594 Z M 211.738281 169.09375 C 211.730469 168.421875 211.21875 167.855469 210.546875 167.800781 C 210.546875 167.792969 210.542969 167.792969 210.539062 167.792969 C 202.542969 167.136719 195.101562 164.734375 188.507812 159.742188 C 187.574219 159.035156 186.882812 159.453125 186.09375 159.996094 C 183.574219 161.742188 180.929688 163.21875 178.136719 164.441406 C 173.691406 166.390625 169.007812 167.152344 164.136719 167.808594 C 163.5 167.894531 163.019531 168.421875 162.992188 169.0625 C 162.820312 173.257812 162.957031 177.21875 163.457031 181.160156 C 165.382812 196.296875 172.25 207.835938 185.164062 215.003906 C 186.785156 215.902344 188.027344 215.816406 189.613281 214.761719 C 199.171875 208.410156 205.714844 199.578125 209.085938 188.15625 C 210.914062 181.960938 211.835938 175.605469 211.738281 169.09375 " fill-opacity="1" fill-rule="nonzero"/></svg>