<svg xmlns="http://www.w3.org/2000/svg" xmlns:xlink="http://www.w3.org/1999/xlink" width="500" zoomAndPan="magnify" viewBox="0 0 375 374.999991" height="500" preserveAspectRatio="xMidYMid meet" version="1.0"><defs><clipPath id="e6c0e5eeab"><path d="M 187.5 0 C 83.945312 0 0 83.945312 0 187.5 C 0 291.054688 83.945312 375 187.5 375 C 291.054688 375 375 291.054688 375 187.5 C 375 83.945312 291.054688 0 187.5 0 Z M 187.5 0 " clip-rule="nonzero"/></clipPath><clipPath id="379bf0d74e"><path d="M 0 0 L 375 0 L 375 375 L 0 375 Z M 0 0 " clip-rule="nonzero"/></clipPath><clipPath id="92eb8cb85f"><path d="M 187.5 0 C 83.945312 0 0 83.945312 0 187.5 C 0 291.054688 83.945312 375 187.5 375 C 291.054688 375 375 291.054688 375 187.5 C 375 83.945312 291.054688 0 187.5 0 Z M 187.5 0 " clip-rule="nonzero"/></clipPath><clipPath id="c7c7e40343"><rect x="0" width="375" y="0" height="375"/></clipPath><clipPath id="e45c778f61"><path d="M 16.128906 16.128906 L 358.871094 16.128906 L 358.871094 358.871094 L 16.128906 358.871094 Z M 16.128906 16.128906 " clip-rule="nonzero"/></clipPath><clipPath id="291ea84e06"><path d="M 187.5 16.128906 C 92.855469 16.128906 16.128906 92.855469 16.128906 187.5 C 16.128906 282.144531 92.855469 358.871094 187.5 358.871094 C 282.144531 358.871094 358.871094 282.144531 358.871094 187.5 C 358.871094 92.855469 282.144531 16.128906 187.5 16.128906 Z M 187.5 16.128906 " clip-rule="nonzero"/></clipPath><clipPath id="ea6cf8688f"><path d="M 0.128906 0.128906 L 342.871094 0.128906 L 342.871094 342.871094 L 0.128906 342.871094 Z M 0.128906 0.128906 " clip-rule="nonzero"/></clipPath><clipPath id="32e5f8731f"><path d="M 171.5 0.128906 C 76.855469 0.128906 0.128906 76.855469 0.128906 171.5 C 0.128906 266.144531 76.855469 342.871094 171.5 342.871094 C 266.144531 342.871094 342.871094 266.144531 342.871094 171.5 C 342.871094 76.855469 266.144531 0.128906 171.5 0.128906 Z M 171.5 0.128906 " clip-rule="nonzero"/></clipPath><clipPath id="d446f6aedd"><rect x="0" width="343" y="0" height="343"/></clipPath><clipPath id="ec22340f98"><path d="M 66.183594 152 L 308 152 L 308 292.441406 L 66.183594 292.441406 Z M 66.183594 152 " clip-rule="nonzero"/></clipPath><clipPath id="eebd79d8ee"><path d="M 66.183594 111 L 216 111 L 216 292.441406 L 66.183594 292.441406 Z M 66.183594 111 " clip-rule="nonzero"/></clipPath><clipPath id="a8ac6ab6d8"><path d="M 206 74.941406 L 316.683594 74.941406 L 316.683594 185 L 206 185 Z M 206 74.941406 " clip-rule="nonzero"/></clipPath></defs><g clip-path="url(#e6c0e5eeab)"><g transform="matrix(1, 0, 0, 1, 0, 0)"><g clip-path="url(#c7c7e40343)"><g clip-path="url(#379bf0d74e)"><g clip-path="url(#92eb8cb85f)"><rect x="-82.5" width="540" fill="#0f0069" height="539.999987" y="-82.499998" fill-opacity="1"/></g></g></g></g></g><g clip-path="url(#e45c778f61)"><g clip-path="url(#291ea84e06)"><g transform="matrix(1, 0, 0, 1, 16, 16)"><g clip-path="url(#d446f6aedd)"><g clip-path="url(#ea6cf8688f)"><g clip-path="url(#32e5f8731f)"><path fill="#004aad" d="M 0.128906 0.128906 L 342.871094 0.128906 L 342.871094 342.871094 L 0.128906 342.871094 Z M 0.128906 0.128906 " fill-opacity="1" fill-rule="nonzero"/></g></g></g></g></g></g><path fill="#090042" d="M 183.203125 274.867188 L 116.878906 274.867188 C 116.605469 274.867188 116.332031 274.839844 116.0625 274.785156 C 115.789062 274.734375 115.527344 274.652344 115.273438 274.546875 C 115.019531 274.441406 114.777344 274.3125 114.546875 274.160156 C 114.316406 274.007812 114.105469 273.832031 113.910156 273.636719 C 113.714844 273.441406 113.539062 273.230469 113.386719 273 C 113.234375 272.769531 113.105469 272.527344 113 272.273438 C 112.894531 272.019531 112.8125 271.757812 112.761719 271.484375 C 112.707031 271.214844 112.679688 270.941406 112.679688 270.667969 L 112.679688 250.921875 C 112.679688 249.699219 112.742188 248.480469 112.859375 247.261719 C 112.980469 246.042969 113.160156 244.835938 113.402344 243.636719 C 113.640625 242.4375 113.9375 241.25 114.292969 240.082031 C 114.648438 238.910156 115.058594 237.761719 115.527344 236.628906 C 115.996094 235.5 116.519531 234.394531 117.097656 233.316406 C 117.675781 232.238281 118.300781 231.191406 118.984375 230.175781 C 119.664062 229.15625 120.390625 228.175781 121.167969 227.230469 C 121.941406 226.285156 122.765625 225.378906 123.628906 224.515625 C 124.496094 223.652344 125.398438 222.832031 126.34375 222.054688 C 127.292969 221.277344 128.273438 220.550781 129.289062 219.871094 C 130.308594 219.191406 131.355469 218.566406 132.433594 217.988281 C 133.511719 217.410156 134.617188 216.890625 135.746094 216.421875 C 136.878906 215.953125 138.027344 215.542969 139.199219 215.1875 C 140.371094 214.832031 141.554688 214.535156 142.753906 214.296875 C 143.953125 214.058594 145.164062 213.878906 146.378906 213.757812 C 147.597656 213.640625 148.816406 213.578125 150.042969 213.578125 C 151.265625 213.578125 152.484375 213.640625 153.703125 213.757812 C 154.917969 213.878906 156.128906 214.058594 157.328125 214.296875 C 158.527344 214.535156 159.710938 214.832031 160.882812 215.1875 C 162.054688 215.542969 163.203125 215.953125 164.335938 216.421875 C 165.464844 216.890625 166.570312 217.410156 167.648438 217.988281 C 168.726562 218.566406 169.773438 219.191406 170.792969 219.871094 C 171.808594 220.550781 172.792969 221.277344 173.738281 222.054688 C 174.683594 222.832031 175.589844 223.652344 176.453125 224.515625 C 177.320312 225.378906 178.140625 226.285156 178.914062 227.230469 C 179.691406 228.175781 180.421875 229.15625 181.101562 230.175781 C 181.78125 231.191406 182.410156 232.238281 182.984375 233.316406 C 183.5625 234.394531 184.085938 235.5 184.554688 236.628906 C 185.023438 237.761719 185.433594 238.910156 185.789062 240.082031 C 186.144531 241.25 186.441406 242.4375 186.683594 243.636719 C 186.921875 244.835938 187.101562 246.042969 187.222656 247.261719 C 187.339844 248.480469 187.402344 249.699219 187.402344 250.921875 L 187.402344 270.667969 C 187.402344 270.941406 187.375 271.214844 187.320312 271.484375 C 187.269531 271.757812 187.1875 272.019531 187.082031 272.273438 C 186.976562 272.527344 186.847656 272.769531 186.695312 273 C 186.542969 273.230469 186.367188 273.441406 186.171875 273.636719 C 185.976562 273.832031 185.765625 274.007812 185.535156 274.160156 C 185.304688 274.3125 185.0625 274.441406 184.808594 274.546875 C 184.554688 274.652344 184.292969 274.734375 184.019531 274.785156 C 183.75 274.839844 183.476562 274.867188 183.203125 274.867188 Z M 121.082031 266.464844 L 179 266.464844 L 179 250.921875 C 179 249.972656 178.953125 249.027344 178.863281 248.085938 C 178.769531 247.140625 178.628906 246.203125 178.445312 245.273438 C 178.257812 244.34375 178.03125 243.421875 177.753906 242.515625 C 177.480469 241.609375 177.160156 240.714844 176.796875 239.839844 C 176.433594 238.964844 176.027344 238.109375 175.582031 237.269531 C 175.132812 236.433594 174.648438 235.621094 174.121094 234.832031 C 173.59375 234.042969 173.027344 233.285156 172.425781 232.550781 C 171.824219 231.816406 171.191406 231.117188 170.519531 230.445312 C 169.847656 229.773438 169.144531 229.136719 168.414062 228.535156 C 167.679688 227.933594 166.917969 227.371094 166.128906 226.84375 C 165.339844 226.316406 164.527344 225.828125 163.691406 225.382812 C 162.855469 224.933594 162 224.53125 161.125 224.167969 C 160.246094 223.804688 159.355469 223.484375 158.449219 223.210938 C 157.539062 222.933594 156.621094 222.703125 155.691406 222.519531 C 154.761719 222.335938 153.824219 222.195312 152.878906 222.101562 C 151.9375 222.007812 150.988281 221.960938 150.042969 221.960938 C 149.09375 221.960938 148.148438 222.007812 147.203125 222.101562 C 146.257812 222.195312 145.320312 222.335938 144.390625 222.519531 C 143.460938 222.703125 142.542969 222.933594 141.632812 223.210938 C 140.726562 223.484375 139.835938 223.804688 138.957031 224.167969 C 138.082031 224.53125 137.226562 224.933594 136.390625 225.382812 C 135.554688 225.828125 134.742188 226.316406 133.953125 226.84375 C 133.164062 227.371094 132.402344 227.933594 131.667969 228.535156 C 130.9375 229.136719 130.234375 229.773438 129.5625 230.445312 C 128.894531 231.117188 128.257812 231.816406 127.65625 232.550781 C 127.054688 233.285156 126.488281 234.042969 125.960938 234.832031 C 125.433594 235.621094 124.949219 236.433594 124.5 237.269531 C 124.054688 238.109375 123.648438 238.964844 123.285156 239.839844 C 122.921875 240.714844 122.605469 241.609375 122.328125 242.515625 C 122.054688 243.421875 121.824219 244.34375 121.636719 245.273438 C 121.453125 246.203125 121.3125 247.140625 121.222656 248.085938 C 121.128906 249.027344 121.082031 249.972656 121.082031 250.921875 Z M 121.082031 266.464844 " fill-opacity="1" fill-rule="nonzero"/><path fill="#090042" d="M 150.042969 212.394531 C 149.351562 212.394531 148.667969 212.363281 147.980469 212.292969 C 147.296875 212.226562 146.617188 212.125 145.945312 211.992188 C 145.269531 211.859375 144.601562 211.691406 143.945312 211.492188 C 143.285156 211.292969 142.640625 211.058594 142.003906 210.796875 C 141.367188 210.535156 140.746094 210.238281 140.140625 209.914062 C 139.53125 209.589844 138.945312 209.238281 138.371094 208.855469 C 137.800781 208.472656 137.246094 208.0625 136.714844 207.628906 C 136.183594 207.191406 135.675781 206.730469 135.1875 206.242188 C 134.703125 205.757812 134.242188 205.246094 133.804688 204.714844 C 133.367188 204.183594 132.957031 203.632812 132.578125 203.058594 C 132.195312 202.488281 131.839844 201.898438 131.515625 201.292969 C 131.191406 200.6875 130.898438 200.066406 130.636719 199.429688 C 130.371094 198.792969 130.140625 198.148438 129.941406 197.488281 C 129.742188 196.828125 129.574219 196.164062 129.441406 195.488281 C 129.304688 194.8125 129.207031 194.132812 129.136719 193.449219 C 129.070312 192.765625 129.035156 192.078125 129.035156 191.390625 C 129.035156 190.703125 129.070312 190.015625 129.136719 189.332031 C 129.207031 188.648438 129.304688 187.96875 129.441406 187.292969 C 129.574219 186.617188 129.742188 185.953125 129.941406 185.292969 C 130.140625 184.636719 130.371094 183.988281 130.636719 183.351562 C 130.898438 182.71875 131.191406 182.097656 131.515625 181.488281 C 131.839844 180.882812 132.195312 180.292969 132.578125 179.722656 C 132.957031 179.148438 133.367188 178.597656 133.804688 178.066406 C 134.242188 177.535156 134.703125 177.023438 135.1875 176.539062 C 135.675781 176.050781 136.183594 175.589844 136.714844 175.15625 C 137.246094 174.71875 137.800781 174.308594 138.371094 173.925781 C 138.945312 173.542969 139.53125 173.191406 140.140625 172.867188 C 140.746094 172.542969 141.367188 172.25 142.003906 171.984375 C 142.640625 171.722656 143.285156 171.492188 143.945312 171.292969 C 144.601562 171.089844 145.269531 170.925781 145.945312 170.789062 C 146.617188 170.65625 147.296875 170.554688 147.980469 170.488281 C 148.667969 170.421875 149.351562 170.386719 150.042969 170.386719 C 150.730469 170.386719 151.414062 170.421875 152.101562 170.488281 C 152.785156 170.554688 153.464844 170.65625 154.140625 170.789062 C 154.8125 170.925781 155.480469 171.089844 156.136719 171.292969 C 156.796875 171.492188 157.445312 171.722656 158.078125 171.984375 C 158.714844 172.25 159.335938 172.542969 159.941406 172.867188 C 160.550781 173.191406 161.136719 173.542969 161.710938 173.925781 C 162.28125 174.308594 162.835938 174.71875 163.367188 175.15625 C 163.898438 175.589844 164.40625 176.050781 164.894531 176.539062 C 165.378906 177.023438 165.839844 177.535156 166.277344 178.066406 C 166.714844 178.597656 167.125 179.148438 167.503906 179.722656 C 167.886719 180.292969 168.242188 180.882812 168.566406 181.488281 C 168.890625 182.097656 169.183594 182.71875 169.445312 183.351562 C 169.710938 183.988281 169.941406 184.636719 170.140625 185.292969 C 170.339844 185.953125 170.507812 186.617188 170.640625 187.292969 C 170.777344 187.96875 170.878906 188.648438 170.945312 189.332031 C 171.011719 190.015625 171.046875 190.703125 171.046875 191.390625 C 171.046875 192.078125 171.011719 192.765625 170.945312 193.449219 C 170.878906 194.132812 170.777344 194.8125 170.640625 195.488281 C 170.507812 196.164062 170.339844 196.828125 170.140625 197.488281 C 169.941406 198.148438 169.710938 198.792969 169.445312 199.429688 C 169.183594 200.066406 168.890625 200.6875 168.566406 201.292969 C 168.242188 201.898438 167.886719 202.488281 167.503906 203.058594 C 167.125 203.632812 166.714844 204.183594 166.277344 204.714844 C 165.839844 205.246094 165.378906 205.757812 164.894531 206.242188 C 164.40625 206.730469 163.898438 207.191406 163.367188 207.628906 C 162.835938 208.0625 162.28125 208.472656 161.710938 208.855469 C 161.136719 209.238281 160.550781 209.589844 159.941406 209.914062 C 159.335938 210.238281 158.714844 210.535156 158.078125 210.796875 C 157.445312 211.058594 156.796875 211.292969 156.136719 211.492188 C 155.480469 211.691406 154.8125 211.859375 154.140625 211.992188 C 153.464844 212.125 152.785156 212.226562 152.101562 212.292969 C 151.414062 212.363281 150.730469 212.394531 150.042969 212.394531 Z M 150.042969 178.789062 C 149.214844 178.789062 148.394531 178.867188 147.582031 179.03125 C 146.769531 179.191406 145.984375 179.429688 145.21875 179.746094 C 144.453125 180.0625 143.726562 180.453125 143.039062 180.914062 C 142.351562 181.371094 141.714844 181.894531 141.128906 182.480469 C 140.542969 183.066406 140.023438 183.703125 139.5625 184.390625 C 139.101562 185.078125 138.714844 185.804688 138.398438 186.566406 C 138.082031 187.332031 137.84375 188.121094 137.679688 188.933594 C 137.519531 189.742188 137.4375 190.5625 137.4375 191.390625 C 137.4375 192.21875 137.519531 193.039062 137.679688 193.847656 C 137.84375 194.660156 138.082031 195.449219 138.398438 196.214844 C 138.714844 196.976562 139.101562 197.703125 139.5625 198.394531 C 140.023438 199.082031 140.542969 199.71875 141.128906 200.300781 C 141.714844 200.886719 142.351562 201.410156 143.039062 201.871094 C 143.726562 202.328125 144.453125 202.71875 145.21875 203.035156 C 145.984375 203.351562 146.769531 203.589844 147.582031 203.75 C 148.394531 203.914062 149.214844 203.992188 150.042969 203.992188 C 150.867188 203.992188 151.6875 203.914062 152.5 203.75 C 153.3125 203.589844 154.097656 203.351562 154.863281 203.035156 C 155.628906 202.71875 156.355469 202.328125 157.042969 201.871094 C 157.730469 201.410156 158.367188 200.886719 158.953125 200.300781 C 159.539062 199.71875 160.058594 199.082031 160.519531 198.394531 C 160.980469 197.703125 161.367188 196.976562 161.683594 196.214844 C 162 195.449219 162.238281 194.660156 162.402344 193.847656 C 162.5625 193.039062 162.644531 192.21875 162.644531 191.390625 C 162.644531 190.5625 162.5625 189.746094 162.398438 188.933594 C 162.238281 188.125 161.996094 187.335938 161.679688 186.574219 C 161.363281 185.808594 160.972656 185.085938 160.515625 184.398438 C 160.054688 183.710938 159.53125 183.074219 158.945312 182.488281 C 158.363281 181.90625 157.726562 181.382812 157.039062 180.925781 C 156.351562 180.464844 155.625 180.078125 154.859375 179.761719 C 154.097656 179.445312 153.308594 179.207031 152.496094 179.046875 C 151.6875 178.882812 150.867188 178.804688 150.042969 178.804688 Z M 150.042969 178.789062 " fill-opacity="1" fill-rule="nonzero"/><path fill="#090042" d="M 134.628906 274.867188 C 134.351562 274.867188 134.082031 274.839844 133.808594 274.785156 C 133.539062 274.734375 133.277344 274.652344 133.023438 274.546875 C 132.765625 274.441406 132.523438 274.3125 132.296875 274.160156 C 132.066406 274.007812 131.855469 273.832031 131.660156 273.636719 C 131.464844 273.441406 131.289062 273.230469 131.136719 273 C 130.984375 272.769531 130.855469 272.527344 130.75 272.273438 C 130.640625 272.019531 130.5625 271.757812 130.507812 271.484375 C 130.457031 271.214844 130.429688 270.941406 130.429688 270.667969 L 130.429688 250.054688 C 130.429688 249.78125 130.457031 249.507812 130.507812 249.238281 C 130.5625 248.964844 130.640625 248.703125 130.75 248.449219 C 130.855469 248.195312 130.984375 247.953125 131.136719 247.722656 C 131.289062 247.492188 131.464844 247.28125 131.660156 247.085938 C 131.855469 246.890625 132.066406 246.714844 132.296875 246.5625 C 132.523438 246.410156 132.765625 246.28125 133.023438 246.175781 C 133.277344 246.070312 133.539062 245.988281 133.808594 245.9375 C 134.082031 245.882812 134.351562 245.855469 134.628906 245.855469 C 134.90625 245.855469 135.179688 245.882812 135.449219 245.9375 C 135.71875 245.988281 135.980469 246.070312 136.238281 246.175781 C 136.492188 246.28125 136.734375 246.410156 136.964844 246.5625 C 137.191406 246.714844 137.40625 246.890625 137.601562 247.085938 C 137.792969 247.28125 137.96875 247.492188 138.121094 247.722656 C 138.273438 247.953125 138.40625 248.195312 138.511719 248.449219 C 138.617188 248.703125 138.695312 248.964844 138.75 249.238281 C 138.804688 249.507812 138.832031 249.78125 138.832031 250.054688 L 138.832031 270.667969 C 138.832031 270.941406 138.804688 271.214844 138.75 271.484375 C 138.695312 271.757812 138.617188 272.019531 138.511719 272.273438 C 138.40625 272.527344 138.273438 272.769531 138.121094 273 C 137.96875 273.230469 137.792969 273.441406 137.601562 273.636719 C 137.40625 273.832031 137.191406 274.007812 136.964844 274.160156 C 136.734375 274.3125 136.492188 274.441406 136.238281 274.546875 C 135.980469 274.652344 135.71875 274.734375 135.449219 274.785156 C 135.179688 274.839844 134.90625 274.867188 134.628906 274.867188 Z M 134.628906 274.867188 " fill-opacity="1" fill-rule="nonzero"/><path fill="#090042" d="M 165.453125 274.867188 C 165.175781 274.867188 164.902344 274.839844 164.632812 274.785156 C 164.363281 274.734375 164.101562 274.652344 163.84375 274.546875 C 163.589844 274.441406 163.347656 274.3125 163.121094 274.160156 C 162.890625 274.007812 162.679688 273.832031 162.484375 273.636719 C 162.289062 273.441406 162.113281 273.230469 161.960938 273 C 161.808594 272.769531 161.675781 272.527344 161.570312 272.273438 C 161.464844 272.019531 161.386719 271.757812 161.332031 271.484375 C 161.277344 271.214844 161.253906 270.941406 161.253906 270.667969 L 161.253906 250.054688 C 161.253906 249.78125 161.277344 249.507812 161.332031 249.238281 C 161.386719 248.964844 161.464844 248.703125 161.570312 248.449219 C 161.675781 248.195312 161.808594 247.953125 161.960938 247.722656 C 162.113281 247.492188 162.289062 247.28125 162.484375 247.085938 C 162.679688 246.890625 162.890625 246.714844 163.121094 246.5625 C 163.347656 246.410156 163.589844 246.28125 163.84375 246.175781 C 164.101562 246.070312 164.363281 245.988281 164.632812 245.9375 C 164.902344 245.882812 165.175781 245.855469 165.453125 245.855469 C 165.730469 245.855469 166.003906 245.882812 166.273438 245.9375 C 166.542969 245.988281 166.804688 246.070312 167.0625 246.175781 C 167.316406 246.28125 167.558594 246.410156 167.785156 246.5625 C 168.015625 246.714844 168.230469 246.890625 168.421875 247.085938 C 168.617188 247.28125 168.792969 247.492188 168.945312 247.722656 C 169.097656 247.953125 169.230469 248.195312 169.335938 248.449219 C 169.441406 248.703125 169.519531 248.964844 169.574219 249.238281 C 169.628906 249.507812 169.652344 249.78125 169.652344 250.054688 L 169.652344 270.667969 C 169.652344 270.941406 169.628906 271.214844 169.574219 271.484375 C 169.519531 271.757812 169.441406 272.019531 169.335938 272.273438 C 169.230469 272.527344 169.097656 272.769531 168.945312 273 C 168.792969 273.230469 168.617188 273.441406 168.421875 273.636719 C 168.230469 273.832031 168.015625 274.007812 167.785156 274.160156 C 167.558594 274.3125 167.316406 274.441406 167.0625 274.546875 C 166.804688 274.652344 166.542969 274.734375 166.273438 274.785156 C 166.003906 274.839844 165.730469 274.867188 165.453125 274.867188 Z M 165.453125 274.867188 " fill-opacity="1" fill-rule="nonzero"/><path fill="#090042" d="M 228.828125 274.867188 C 228.191406 274.867188 227.582031 274.730469 227.007812 274.453125 L 208.796875 265.699219 C 198.585938 260.792969 191.992188 249.746094 191.992188 237.5625 L 191.992188 194.832031 C 191.992188 194.648438 192.003906 194.46875 192.023438 194.289062 C 192.046875 194.113281 192.082031 193.933594 192.125 193.761719 C 192.171875 193.585938 192.226562 193.414062 192.296875 193.246094 C 192.363281 193.078125 192.441406 192.917969 192.527344 192.757812 C 192.617188 192.601562 192.714844 192.449219 192.824219 192.304688 C 192.929688 192.160156 193.046875 192.023438 193.171875 191.894531 C 193.296875 191.765625 193.429688 191.644531 193.574219 191.53125 C 193.714844 191.417969 193.859375 191.3125 194.015625 191.222656 C 194.171875 191.128906 194.328125 191.042969 194.496094 190.972656 C 194.660156 190.898438 194.828125 190.835938 195.003906 190.785156 C 195.175781 190.734375 195.351562 190.695312 195.527344 190.664062 C 195.707031 190.636719 195.886719 190.621094 196.066406 190.613281 C 196.246094 190.609375 196.429688 190.613281 196.609375 190.632812 C 196.789062 190.652344 196.964844 190.679688 197.140625 190.71875 C 197.316406 190.761719 197.488281 190.8125 197.660156 190.875 C 197.828125 190.9375 197.992188 191.011719 198.152344 191.097656 C 203.761719 194.058594 211.988281 196.875 219.328125 193.519531 C 220.820312 192.835938 222.363281 192.320312 223.964844 191.96875 C 225.566406 191.621094 227.1875 191.445312 228.824219 191.445312 C 230.464844 191.445312 232.085938 191.621094 233.6875 191.96875 C 235.285156 192.320312 236.832031 192.835938 238.324219 193.519531 C 245.675781 196.878906 253.890625 194.042969 259.5 191.097656 C 259.820312 190.929688 260.15625 190.804688 260.507812 190.722656 C 260.863281 190.640625 261.21875 190.605469 261.582031 190.613281 C 261.941406 190.625 262.296875 190.679688 262.644531 190.78125 C 262.992188 190.886719 263.320312 191.03125 263.628906 191.214844 C 263.941406 191.402344 264.21875 191.628906 264.472656 191.886719 C 264.726562 192.144531 264.941406 192.433594 265.117188 192.75 C 265.296875 193.0625 265.429688 193.398438 265.523438 193.746094 C 265.613281 194.097656 265.660156 194.453125 265.660156 194.816406 L 265.660156 237.546875 C 265.660156 249.730469 259.066406 260.777344 248.855469 265.683594 L 230.628906 274.453125 C 230.0625 274.726562 229.460938 274.867188 228.828125 274.867188 Z M 200.394531 201.285156 L 200.394531 237.5625 C 200.394531 246.539062 205.121094 254.609375 212.433594 258.128906 L 228.828125 266.003906 L 245.21875 258.128906 C 252.53125 254.609375 257.257812 246.539062 257.257812 237.5625 L 257.257812 201.285156 C 250.664062 203.65625 242.628906 204.746094 234.824219 201.171875 C 233.882812 200.742188 232.90625 200.417969 231.894531 200.195312 C 230.886719 199.976562 229.863281 199.863281 228.824219 199.863281 C 227.789062 199.863281 226.765625 199.976562 225.753906 200.195312 C 224.746094 200.417969 223.769531 200.742188 222.828125 201.171875 C 215.023438 204.75 207 203.65625 200.394531 201.285156 Z M 200.394531 201.285156 " fill-opacity="1" fill-rule="nonzero"/><g clip-path="url(#ec22340f98)"><path fill="#090042" d="M 268.960938 292.542969 L 70.472656 292.542969 C 70.140625 292.542969 69.8125 292.503906 69.492188 292.425781 C 69.167969 292.347656 68.859375 292.234375 68.566406 292.085938 C 68.269531 291.933594 67.996094 291.753906 67.746094 291.539062 C 67.492188 291.324219 67.269531 291.082031 67.074219 290.8125 C 66.878906 290.546875 66.71875 290.257812 66.59375 289.953125 C 66.464844 289.648438 66.375 289.332031 66.324219 289.003906 C 66.273438 288.675781 66.257812 288.347656 66.285156 288.019531 C 66.308594 287.6875 66.375 287.367188 66.476562 287.050781 L 90.046875 214.203125 C 93.433594 203.734375 96.515625 192.945312 99.5 182.515625 C 100.460938 179.15625 101.425781 175.796875 102.386719 172.441406 C 102.800781 171.03125 103.324219 169.660156 103.960938 168.335938 C 104.59375 167.011719 105.328125 165.742188 106.167969 164.535156 C 107.003906 163.328125 107.933594 162.195312 108.949219 161.136719 C 109.96875 160.078125 111.066406 159.105469 112.242188 158.226562 C 113.417969 157.34375 114.65625 156.558594 115.957031 155.875 C 117.257812 155.191406 118.605469 154.617188 120 154.152344 C 121.390625 153.683594 122.8125 153.332031 124.261719 153.089844 C 125.714844 152.851562 127.171875 152.730469 128.644531 152.726562 L 218.847656 152.726562 C 219.121094 152.726562 219.394531 152.753906 219.664062 152.808594 C 219.9375 152.863281 220.199219 152.941406 220.453125 153.046875 C 220.707031 153.152344 220.949219 153.28125 221.179688 153.433594 C 221.410156 153.589844 221.621094 153.761719 221.816406 153.957031 C 222.011719 154.152344 222.1875 154.363281 222.339844 154.59375 C 222.492188 154.824219 222.621094 155.066406 222.726562 155.320312 C 222.832031 155.574219 222.914062 155.839844 222.964844 156.109375 C 223.019531 156.378906 223.046875 156.652344 223.046875 156.929688 C 223.046875 157.203125 223.019531 157.476562 222.964844 157.746094 C 222.914062 158.019531 222.832031 158.28125 222.726562 158.535156 C 222.621094 158.789062 222.492188 159.03125 222.339844 159.261719 C 222.1875 159.492188 222.011719 159.703125 221.816406 159.898438 C 221.621094 160.09375 221.410156 160.269531 221.179688 160.421875 C 220.949219 160.574219 220.707031 160.703125 220.453125 160.808594 C 220.199219 160.914062 219.9375 160.996094 219.664062 161.046875 C 219.394531 161.101562 219.121094 161.128906 218.847656 161.128906 L 128.636719 161.128906 C 127.621094 161.132812 126.609375 161.214844 125.605469 161.382812 C 124.601562 161.546875 123.617188 161.792969 122.652344 162.113281 C 121.6875 162.4375 120.753906 162.835938 119.851562 163.308594 C 118.953125 163.785156 118.09375 164.324219 117.28125 164.9375 C 116.46875 165.546875 115.707031 166.21875 115.003906 166.953125 C 114.296875 167.6875 113.652344 168.472656 113.074219 169.308594 C 112.496094 170.144531 111.984375 171.019531 111.546875 171.941406 C 111.109375 172.859375 110.746094 173.804688 110.457031 174.78125 C 109.492188 178.132812 108.53125 181.480469 107.574219 184.832031 C 104.601562 195.328125 101.453125 206.1875 98.039062 216.796875 L 76.246094 284.140625 L 265.902344 284.140625 L 297.933594 185.136719 C 298.417969 183.648438 298.710938 182.121094 298.808594 180.558594 C 298.90625 178.996094 298.808594 177.445312 298.511719 175.910156 C 298.214844 174.371094 297.730469 172.894531 297.058594 171.480469 C 296.386719 170.066406 295.550781 168.757812 294.546875 167.554688 C 294.246094 167.125 294.03125 166.652344 293.910156 166.140625 C 293.785156 165.628906 293.757812 165.109375 293.832031 164.589844 C 293.902344 164.066406 294.066406 163.574219 294.320312 163.113281 C 294.578125 162.652344 294.90625 162.257812 295.3125 161.917969 C 295.71875 161.582031 296.171875 161.332031 296.671875 161.167969 C 297.171875 161 297.6875 160.933594 298.210938 160.960938 C 298.738281 160.988281 299.242188 161.109375 299.722656 161.328125 C 300.203125 161.542969 300.625 161.839844 300.996094 162.214844 C 302.453125 163.960938 303.667969 165.859375 304.644531 167.914062 C 305.617188 169.96875 306.320312 172.113281 306.75 174.347656 C 307.179688 176.578125 307.324219 178.828125 307.183594 181.097656 C 307.042969 183.367188 306.621094 185.585938 305.914062 187.746094 L 272.953125 289.632812 C 272.816406 290.054688 272.617188 290.445312 272.359375 290.804688 C 272.097656 291.164062 271.789062 291.476562 271.429688 291.738281 C 271.074219 291.996094 270.683594 292.199219 270.261719 292.335938 C 269.839844 292.472656 269.40625 292.542969 268.960938 292.542969 Z M 268.960938 292.542969 " fill-opacity="1" fill-rule="nonzero"/></g><g clip-path="url(#eebd79d8ee)"><path fill="#090042" d="M 70.472656 292.542969 C 70.195312 292.542969 69.921875 292.515625 69.652344 292.460938 C 69.382812 292.410156 69.117188 292.328125 68.863281 292.222656 C 68.609375 292.117188 68.367188 291.988281 68.136719 291.835938 C 67.90625 291.679688 67.695312 291.507812 67.5 291.3125 C 67.304688 291.117188 67.132812 290.90625 66.976562 290.675781 C 66.824219 290.445312 66.695312 290.203125 66.589844 289.949219 C 66.484375 289.695312 66.40625 289.433594 66.351562 289.160156 C 66.296875 288.890625 66.269531 288.617188 66.269531 288.34375 L 66.269531 131.757812 C 66.269531 131.101562 66.304688 130.445312 66.371094 129.789062 C 66.433594 129.132812 66.53125 128.480469 66.660156 127.835938 C 66.789062 127.191406 66.949219 126.550781 67.140625 125.921875 C 67.332031 125.292969 67.554688 124.671875 67.808594 124.0625 C 68.058594 123.453125 68.339844 122.859375 68.652344 122.28125 C 68.960938 121.699219 69.300781 121.132812 69.667969 120.585938 C 70.03125 120.039062 70.425781 119.511719 70.84375 119 C 71.261719 118.492188 71.703125 118.003906 72.167969 117.539062 C 72.632812 117.074219 73.121094 116.632812 73.628906 116.214844 C 74.140625 115.796875 74.667969 115.402344 75.214844 115.035156 C 75.761719 114.671875 76.328125 114.332031 76.90625 114.019531 C 77.488281 113.710938 78.082031 113.429688 78.691406 113.175781 C 79.300781 112.921875 79.917969 112.703125 80.550781 112.507812 C 81.179688 112.316406 81.816406 112.15625 82.464844 112.027344 C 83.109375 111.898438 83.761719 111.800781 84.417969 111.738281 C 85.070312 111.671875 85.730469 111.636719 86.386719 111.636719 L 157.640625 111.636719 C 159.039062 111.640625 160.421875 111.785156 161.789062 112.074219 C 163.15625 112.363281 164.480469 112.792969 165.761719 113.355469 C 167.039062 113.921875 168.246094 114.613281 169.382812 115.429688 C 170.515625 116.246094 171.558594 117.167969 172.5 118.203125 L 180.5625 127.035156 C 181.671875 128.25 182.980469 129.191406 184.488281 129.855469 C 185.996094 130.523438 187.570312 130.855469 189.21875 130.855469 L 211.199219 130.855469 C 211.476562 130.855469 211.75 130.882812 212.019531 130.9375 C 212.289062 130.992188 212.554688 131.070312 212.808594 131.175781 C 213.0625 131.28125 213.304688 131.410156 213.535156 131.5625 C 213.765625 131.71875 213.976562 131.890625 214.171875 132.085938 C 214.367188 132.28125 214.539062 132.492188 214.695312 132.722656 C 214.847656 132.953125 214.976562 133.195312 215.082031 133.449219 C 215.1875 133.703125 215.265625 133.96875 215.320312 134.238281 C 215.375 134.507812 215.402344 134.78125 215.402344 135.058594 C 215.402344 135.332031 215.375 135.605469 215.320312 135.875 C 215.265625 136.148438 215.1875 136.410156 215.082031 136.664062 C 214.976562 136.917969 214.847656 137.160156 214.695312 137.390625 C 214.539062 137.621094 214.367188 137.832031 214.171875 138.027344 C 213.976562 138.222656 213.765625 138.398438 213.535156 138.550781 C 213.304688 138.703125 213.0625 138.832031 212.808594 138.9375 C 212.554688 139.042969 212.289062 139.125 212.019531 139.175781 C 211.75 139.230469 211.476562 139.257812 211.199219 139.257812 L 189.21875 139.257812 C 187.820312 139.257812 186.4375 139.113281 185.066406 138.824219 C 183.699219 138.535156 182.375 138.105469 181.09375 137.542969 C 179.816406 136.976562 178.609375 136.285156 177.472656 135.46875 C 176.335938 134.652344 175.296875 133.726562 174.355469 132.695312 L 166.296875 123.863281 C 165.1875 122.644531 163.878906 121.703125 162.371094 121.035156 C 160.863281 120.367188 159.289062 120.03125 157.640625 120.027344 L 86.386719 120.027344 C 85.617188 120.03125 84.855469 120.105469 84.101562 120.257812 C 83.347656 120.40625 82.613281 120.628906 81.902344 120.925781 C 81.191406 121.222656 80.515625 121.582031 79.878906 122.011719 C 79.238281 122.4375 78.644531 122.925781 78.101562 123.46875 C 77.558594 124.015625 77.074219 124.605469 76.644531 125.246094 C 76.21875 125.886719 75.859375 126.5625 75.5625 127.273438 C 75.269531 127.984375 75.046875 128.71875 74.898438 129.472656 C 74.746094 130.226562 74.671875 130.988281 74.671875 131.757812 L 74.671875 288.34375 C 74.671875 288.617188 74.644531 288.890625 74.589844 289.160156 C 74.539062 289.433594 74.457031 289.695312 74.351562 289.949219 C 74.246094 290.203125 74.117188 290.445312 73.964844 290.675781 C 73.8125 290.90625 73.636719 291.117188 73.441406 291.3125 C 73.246094 291.507812 73.035156 291.679688 72.804688 291.835938 C 72.574219 291.988281 72.332031 292.117188 72.078125 292.222656 C 71.824219 292.328125 71.5625 292.410156 71.289062 292.460938 C 71.019531 292.515625 70.746094 292.542969 70.472656 292.542969 Z M 70.472656 292.542969 " fill-opacity="1" fill-rule="nonzero"/></g><path fill="#090042" d="M 223.226562 246.234375 C 222.066406 246.234375 221.074219 245.824219 220.257812 245 L 212.90625 237.648438 C 212.53125 237.25 212.242188 236.796875 212.042969 236.289062 C 211.839844 235.777344 211.746094 235.25 211.753906 234.699219 C 211.757812 234.152344 211.871094 233.625 212.082031 233.121094 C 212.296875 232.617188 212.59375 232.171875 212.984375 231.785156 C 213.371094 231.398438 213.816406 231.097656 214.320312 230.882812 C 214.824219 230.671875 215.351562 230.5625 215.898438 230.554688 C 216.445312 230.546875 216.976562 230.644531 217.484375 230.84375 C 217.996094 231.042969 218.449219 231.332031 218.847656 231.707031 L 223.210938 236.074219 L 238.789062 220.503906 C 238.984375 220.308594 239.195312 220.132812 239.425781 219.980469 C 239.65625 219.828125 239.898438 219.695312 240.152344 219.589844 C 240.40625 219.484375 240.671875 219.40625 240.941406 219.351562 C 241.210938 219.296875 241.484375 219.269531 241.761719 219.269531 C 242.035156 219.269531 242.308594 219.296875 242.582031 219.347656 C 242.851562 219.402344 243.113281 219.484375 243.371094 219.589844 C 243.625 219.695312 243.867188 219.824219 244.097656 219.976562 C 244.324219 220.128906 244.539062 220.304688 244.734375 220.5 C 244.929688 220.695312 245.101562 220.90625 245.257812 221.136719 C 245.410156 221.363281 245.539062 221.605469 245.644531 221.863281 C 245.75 222.117188 245.832031 222.378906 245.882812 222.648438 C 245.9375 222.921875 245.964844 223.195312 245.964844 223.46875 C 245.964844 223.746094 245.9375 224.019531 245.882812 224.289062 C 245.832031 224.5625 245.75 224.824219 245.644531 225.078125 C 245.539062 225.332031 245.410156 225.574219 245.257812 225.804688 C 245.105469 226.035156 244.929688 226.246094 244.734375 226.441406 L 226.199219 244.972656 C 225.382812 245.804688 224.390625 246.226562 223.226562 246.234375 Z M 223.226562 246.234375 " fill-opacity="1" fill-rule="nonzero"/><path fill="#090042" d="M 280.605469 166.773438 L 242.320312 166.773438 C 241.640625 166.773438 240.96875 166.707031 240.304688 166.574219 C 239.640625 166.441406 238.992188 166.246094 238.367188 165.984375 C 237.742188 165.726562 237.144531 165.40625 236.582031 165.03125 C 236.019531 164.652344 235.496094 164.222656 235.019531 163.746094 C 234.539062 163.265625 234.113281 162.742188 233.734375 162.179688 C 233.359375 161.613281 233.042969 161.019531 232.78125 160.390625 C 232.523438 159.765625 232.328125 159.121094 232.195312 158.453125 C 232.066406 157.789062 232 157.117188 232 156.441406 L 232 128.503906 C 232 127.828125 232.066406 127.15625 232.199219 126.492188 C 232.332031 125.828125 232.527344 125.183594 232.789062 124.558594 C 233.046875 123.933594 233.367188 123.339844 233.742188 122.773438 C 234.121094 122.210938 234.546875 121.691406 235.027344 121.210938 C 235.503906 120.734375 236.027344 120.304688 236.589844 119.929688 C 237.152344 119.554688 237.746094 119.234375 238.371094 118.976562 C 238.996094 118.71875 239.644531 118.523438 240.308594 118.390625 C 240.972656 118.257812 241.640625 118.191406 242.320312 118.191406 L 280.605469 118.191406 C 281.28125 118.191406 281.953125 118.257812 282.617188 118.390625 C 283.28125 118.523438 283.925781 118.71875 284.550781 118.980469 C 285.175781 119.238281 285.769531 119.554688 286.332031 119.933594 C 286.894531 120.308594 287.414062 120.734375 287.894531 121.214844 C 288.371094 121.691406 288.800781 122.214844 289.175781 122.777344 C 289.550781 123.339844 289.871094 123.933594 290.128906 124.558594 C 290.390625 125.183594 290.585938 125.828125 290.71875 126.492188 C 290.851562 127.15625 290.917969 127.828125 290.917969 128.503906 L 290.917969 156.441406 C 290.917969 157.117188 290.851562 157.789062 290.722656 158.453125 C 290.589844 159.117188 290.394531 159.765625 290.136719 160.390625 C 289.878906 161.019531 289.558594 161.613281 289.183594 162.175781 C 288.808594 162.742188 288.378906 163.261719 287.902344 163.742188 C 287.421875 164.222656 286.902344 164.652344 286.339844 165.027344 C 285.773438 165.40625 285.179688 165.722656 284.554688 165.984375 C 283.929688 166.242188 283.28125 166.441406 282.617188 166.574219 C 281.953125 166.707031 281.28125 166.773438 280.605469 166.773438 Z M 242.320312 126.59375 C 242.066406 126.59375 241.820312 126.640625 241.585938 126.738281 C 241.351562 126.835938 241.144531 126.972656 240.964844 127.152344 C 240.785156 127.332031 240.648438 127.539062 240.550781 127.773438 C 240.453125 128.007812 240.402344 128.25 240.402344 128.503906 L 240.402344 156.441406 C 240.402344 156.695312 240.453125 156.9375 240.550781 157.171875 C 240.648438 157.40625 240.785156 157.613281 240.964844 157.792969 C 241.144531 157.96875 241.351562 158.109375 241.585938 158.207031 C 241.820312 158.300781 242.066406 158.351562 242.320312 158.351562 L 280.605469 158.351562 C 280.859375 158.351562 281.101562 158.300781 281.335938 158.207031 C 281.570312 158.109375 281.777344 157.96875 281.957031 157.792969 C 282.136719 157.613281 282.273438 157.40625 282.371094 157.171875 C 282.46875 156.9375 282.515625 156.691406 282.515625 156.441406 L 282.515625 128.503906 C 282.515625 128.25 282.46875 128.007812 282.371094 127.773438 C 282.273438 127.539062 282.136719 127.332031 281.957031 127.152344 C 281.777344 126.972656 281.570312 126.835938 281.335938 126.738281 C 281.101562 126.640625 280.859375 126.59375 280.605469 126.59375 Z M 242.320312 126.59375 " fill-opacity="1" fill-rule="nonzero"/><path fill="#090042" d="M 281.007812 126.59375 L 241.914062 126.59375 C 241.636719 126.59375 241.367188 126.566406 241.09375 126.511719 C 240.824219 126.457031 240.5625 126.378906 240.308594 126.273438 C 240.050781 126.167969 239.808594 126.039062 239.582031 125.882812 C 239.351562 125.730469 239.140625 125.558594 238.945312 125.363281 C 238.75 125.167969 238.574219 124.953125 238.421875 124.726562 C 238.269531 124.496094 238.140625 124.253906 238.035156 124 C 237.925781 123.746094 237.847656 123.480469 237.792969 123.210938 C 237.742188 122.941406 237.714844 122.667969 237.714844 122.390625 L 237.714844 116.390625 C 237.726562 115.621094 237.773438 114.851562 237.859375 114.085938 C 237.945312 113.320312 238.070312 112.558594 238.230469 111.804688 C 238.390625 111.054688 238.585938 110.308594 238.820312 109.574219 C 239.050781 108.839844 239.320312 108.117188 239.621094 107.410156 C 239.925781 106.699219 240.261719 106.007812 240.628906 105.332031 C 241 104.65625 241.402344 104 241.835938 103.363281 C 242.269531 102.726562 242.734375 102.113281 243.230469 101.523438 C 243.722656 100.929688 244.242188 100.363281 244.792969 99.824219 C 245.339844 99.28125 245.914062 98.769531 246.515625 98.285156 C 247.113281 97.800781 247.734375 97.34375 248.375 96.921875 C 249.019531 96.496094 249.683594 96.105469 250.363281 95.746094 C 251.042969 95.382812 251.742188 95.058594 252.453125 94.765625 C 253.167969 94.472656 253.890625 94.21875 254.628906 93.996094 C 255.367188 93.773438 256.117188 93.589844 256.871094 93.441406 C 257.628906 93.289062 258.390625 93.179688 259.15625 93.105469 C 259.921875 93.027344 260.691406 92.992188 261.460938 92.992188 C 262.230469 92.992188 263 93.027344 263.769531 93.105469 C 264.535156 93.179688 265.296875 93.289062 266.050781 93.441406 C 266.808594 93.589844 267.554688 93.773438 268.292969 93.996094 C 269.03125 94.21875 269.757812 94.472656 270.46875 94.765625 C 271.183594 95.058594 271.878906 95.382812 272.558594 95.746094 C 273.242188 96.105469 273.902344 96.496094 274.546875 96.921875 C 275.191406 97.34375 275.808594 97.800781 276.410156 98.285156 C 277.007812 98.769531 277.582031 99.28125 278.128906 99.824219 C 278.679688 100.363281 279.199219 100.929688 279.695312 101.523438 C 280.1875 102.113281 280.652344 102.726562 281.085938 103.363281 C 281.519531 104 281.921875 104.65625 282.292969 105.332031 C 282.664062 106.007812 283 106.699219 283.300781 107.410156 C 283.605469 108.117188 283.871094 108.839844 284.105469 109.574219 C 284.335938 110.308594 284.535156 111.054688 284.695312 111.804688 C 284.855469 112.558594 284.976562 113.320312 285.0625 114.085938 C 285.148438 114.851562 285.199219 115.621094 285.210938 116.390625 L 285.210938 122.390625 C 285.210938 122.667969 285.183594 122.941406 285.128906 123.210938 C 285.074219 123.480469 284.996094 123.746094 284.890625 124 C 284.785156 124.253906 284.65625 124.496094 284.5 124.726562 C 284.347656 124.953125 284.175781 125.167969 283.980469 125.363281 C 283.785156 125.558594 283.570312 125.730469 283.34375 125.882812 C 283.113281 126.039062 282.871094 126.167969 282.617188 126.273438 C 282.363281 126.378906 282.097656 126.457031 281.828125 126.511719 C 281.558594 126.566406 281.285156 126.59375 281.007812 126.59375 Z M 246.117188 118.191406 L 276.808594 118.191406 L 276.808594 116.390625 C 276.789062 115.394531 276.675781 114.410156 276.464844 113.4375 C 276.253906 112.460938 275.953125 111.519531 275.558594 110.601562 C 275.164062 109.6875 274.6875 108.820312 274.125 108 C 273.5625 107.175781 272.925781 106.417969 272.214844 105.71875 C 271.503906 105.023438 270.730469 104.398438 269.902344 103.851562 C 269.070312 103.304688 268.191406 102.84375 267.269531 102.464844 C 266.347656 102.089844 265.398438 101.804688 264.421875 101.613281 C 263.445312 101.421875 262.457031 101.324219 261.460938 101.324219 C 260.464844 101.324219 259.480469 101.421875 258.503906 101.613281 C 257.523438 101.804688 256.574219 102.089844 255.652344 102.464844 C 254.730469 102.84375 253.855469 103.304688 253.023438 103.851562 C 252.191406 104.398438 251.417969 105.023438 250.710938 105.71875 C 250 106.417969 249.363281 107.175781 248.796875 108 C 248.234375 108.820312 247.757812 109.6875 247.363281 110.601562 C 246.96875 111.519531 246.667969 112.460938 246.457031 113.4375 C 246.246094 114.410156 246.132812 115.394531 246.117188 116.390625 Z M 246.117188 118.191406 " fill-opacity="1" fill-rule="nonzero"/><path fill="#090042" d="M 261.457031 150.40625 C 260.769531 150.40625 260.085938 150.339844 259.410156 150.203125 C 258.734375 150.070312 258.078125 149.871094 257.441406 149.605469 C 256.804688 149.34375 256.199219 149.019531 255.625 148.636719 C 255.050781 148.253906 254.519531 147.816406 254.03125 147.332031 C 253.546875 146.84375 253.109375 146.3125 252.726562 145.738281 C 252.34375 145.164062 252.019531 144.558594 251.757812 143.921875 C 251.492188 143.285156 251.292969 142.628906 251.160156 141.953125 C 251.023438 141.277344 250.957031 140.59375 250.957031 139.902344 C 250.957031 139.214844 251.023438 138.53125 251.160156 137.855469 C 251.292969 137.179688 251.492188 136.523438 251.757812 135.886719 C 252.019531 135.246094 252.34375 134.644531 252.726562 134.070312 C 253.109375 133.496094 253.546875 132.964844 254.03125 132.476562 C 254.519531 131.988281 255.050781 131.554688 255.625 131.171875 C 256.199219 130.789062 256.804688 130.464844 257.441406 130.203125 C 258.078125 129.9375 258.734375 129.738281 259.410156 129.605469 C 260.085938 129.46875 260.769531 129.402344 261.460938 129.402344 C 262.148438 129.402344 262.832031 129.46875 263.507812 129.605469 C 264.183594 129.738281 264.839844 129.9375 265.476562 130.203125 C 266.113281 130.464844 266.71875 130.789062 267.292969 131.171875 C 267.867188 131.554688 268.398438 131.988281 268.886719 132.476562 C 269.371094 132.964844 269.808594 133.496094 270.191406 134.070312 C 270.574219 134.644531 270.898438 135.246094 271.160156 135.886719 C 271.425781 136.523438 271.625 137.179688 271.757812 137.855469 C 271.894531 138.53125 271.960938 139.214844 271.960938 139.902344 C 271.960938 140.59375 271.894531 141.277344 271.757812 141.953125 C 271.625 142.628906 271.425781 143.285156 271.160156 143.921875 C 270.898438 144.558594 270.574219 145.164062 270.191406 145.738281 C 269.808594 146.3125 269.371094 146.84375 268.886719 147.332031 C 268.398438 147.816406 267.867188 148.253906 267.292969 148.636719 C 266.71875 149.019531 266.113281 149.34375 265.476562 149.605469 C 264.839844 149.871094 264.183594 150.070312 263.507812 150.203125 C 262.832031 150.339844 262.148438 150.40625 261.457031 150.40625 Z M 261.457031 137.828125 C 261.179688 137.828125 260.914062 137.882812 260.65625 137.988281 C 260.398438 138.097656 260.171875 138.246094 259.972656 138.445312 C 259.777344 138.640625 259.625 138.867188 259.519531 139.125 C 259.410156 139.382812 259.359375 139.652344 259.359375 139.929688 C 259.359375 140.207031 259.410156 140.476562 259.519531 140.734375 C 259.625 140.992188 259.777344 141.21875 259.972656 141.414062 C 260.171875 141.613281 260.398438 141.765625 260.65625 141.871094 C 260.914062 141.976562 261.179688 142.03125 261.457031 142.03125 C 261.738281 142.03125 262.003906 141.976562 262.261719 141.871094 C 262.519531 141.765625 262.746094 141.613281 262.945312 141.414062 C 263.140625 141.21875 263.292969 140.992188 263.398438 140.734375 C 263.507812 140.476562 263.558594 140.207031 263.558594 139.929688 C 263.558594 139.652344 263.507812 139.382812 263.398438 139.125 C 263.292969 138.867188 263.140625 138.640625 262.945312 138.445312 C 262.746094 138.246094 262.519531 138.097656 262.261719 137.988281 C 262.003906 137.882812 261.738281 137.828125 261.457031 137.828125 Z M 261.457031 137.828125 " fill-opacity="1" fill-rule="nonzero"/><path fill="#090042" d="M 261.457031 155.53125 C 261.183594 155.53125 260.910156 155.503906 260.640625 155.449219 C 260.367188 155.398438 260.105469 155.316406 259.851562 155.210938 C 259.597656 155.105469 259.355469 154.976562 259.125 154.824219 C 258.894531 154.671875 258.683594 154.496094 258.488281 154.300781 C 258.292969 154.105469 258.121094 153.894531 257.964844 153.664062 C 257.8125 153.433594 257.683594 153.191406 257.578125 152.9375 C 257.472656 152.683594 257.394531 152.421875 257.339844 152.148438 C 257.285156 151.878906 257.257812 151.605469 257.257812 151.332031 L 257.257812 146.207031 C 257.257812 145.929688 257.285156 145.65625 257.339844 145.386719 C 257.394531 145.113281 257.472656 144.851562 257.578125 144.597656 C 257.683594 144.34375 257.8125 144.101562 257.964844 143.871094 C 258.121094 143.640625 258.292969 143.429688 258.488281 143.234375 C 258.683594 143.039062 258.894531 142.867188 259.125 142.710938 C 259.355469 142.558594 259.597656 142.429688 259.851562 142.324219 C 260.105469 142.21875 260.367188 142.140625 260.640625 142.085938 C 260.910156 142.03125 261.183594 142.003906 261.457031 142.003906 C 261.734375 142.003906 262.007812 142.03125 262.277344 142.085938 C 262.550781 142.140625 262.8125 142.21875 263.066406 142.324219 C 263.320312 142.429688 263.5625 142.558594 263.792969 142.710938 C 264.023438 142.867188 264.234375 143.039062 264.429688 143.234375 C 264.625 143.429688 264.796875 143.640625 264.953125 143.871094 C 265.105469 144.101562 265.234375 144.34375 265.339844 144.597656 C 265.445312 144.851562 265.523438 145.113281 265.578125 145.386719 C 265.632812 145.65625 265.660156 145.929688 265.660156 146.207031 L 265.660156 151.332031 C 265.660156 151.605469 265.632812 151.878906 265.578125 152.148438 C 265.523438 152.421875 265.445312 152.683594 265.339844 152.9375 C 265.234375 153.191406 265.105469 153.433594 264.953125 153.664062 C 264.796875 153.894531 264.625 154.105469 264.429688 154.300781 C 264.234375 154.496094 264.023438 154.671875 263.792969 154.824219 C 263.5625 154.976562 263.320312 155.105469 263.066406 155.210938 C 262.8125 155.316406 262.550781 155.398438 262.277344 155.449219 C 262.007812 155.503906 261.734375 155.53125 261.457031 155.53125 Z M 261.457031 155.53125 " fill-opacity="1" fill-rule="nonzero"/><g clip-path="url(#a8ac6ab6d8)"><path fill="#090042" d="M 261.457031 184.46875 C 259.664062 184.46875 257.875 184.382812 256.089844 184.207031 C 254.304688 184.03125 252.535156 183.769531 250.773438 183.417969 C 249.015625 183.066406 247.277344 182.632812 245.5625 182.113281 C 243.84375 181.589844 242.160156 180.988281 240.5 180.300781 C 238.84375 179.613281 237.226562 178.847656 235.644531 178.003906 C 234.0625 177.15625 232.523438 176.238281 231.035156 175.242188 C 229.542969 174.246094 228.105469 173.175781 226.71875 172.039062 C 225.332031 170.902344 224.003906 169.699219 222.734375 168.429688 C 221.46875 167.160156 220.265625 165.835938 219.125 164.449219 C 217.988281 163.0625 216.921875 161.621094 215.925781 160.132812 C 214.929688 158.640625 214.007812 157.105469 213.160156 155.523438 C 212.316406 153.941406 211.550781 152.320312 210.863281 150.664062 C 210.175781 149.007812 209.574219 147.320312 209.054688 145.601562 C 208.53125 143.886719 208.097656 142.148438 207.746094 140.390625 C 207.398438 138.632812 207.136719 136.859375 206.960938 135.074219 C 206.78125 133.289062 206.695312 131.5 206.695312 129.707031 C 206.695312 127.914062 206.78125 126.125 206.960938 124.339844 C 207.136719 122.554688 207.398438 120.78125 207.746094 119.023438 C 208.097656 117.261719 208.53125 115.527344 209.054688 113.808594 C 209.574219 112.09375 210.175781 110.40625 210.863281 108.75 C 211.550781 107.09375 212.316406 105.472656 213.160156 103.890625 C 214.007812 102.308594 214.929688 100.773438 215.925781 99.28125 C 216.921875 97.789062 217.988281 96.351562 219.125 94.964844 C 220.265625 93.578125 221.46875 92.25 222.734375 90.984375 C 224.003906 89.714844 225.332031 88.511719 226.71875 87.375 C 228.105469 86.234375 229.542969 85.167969 231.035156 84.171875 C 232.523438 83.175781 234.0625 82.253906 235.644531 81.410156 C 237.226562 80.5625 238.84375 79.796875 240.5 79.109375 C 242.160156 78.425781 243.84375 77.820312 245.5625 77.300781 C 247.277344 76.78125 249.015625 76.34375 250.773438 75.996094 C 252.535156 75.644531 254.304688 75.382812 256.089844 75.207031 C 257.875 75.03125 259.664062 74.941406 261.457031 74.941406 C 263.253906 74.941406 265.042969 75.03125 266.828125 75.207031 C 268.613281 75.382812 270.382812 75.644531 272.144531 75.996094 C 273.902344 76.34375 275.640625 76.78125 277.355469 77.300781 C 279.074219 77.820312 280.757812 78.425781 282.417969 79.109375 C 284.074219 79.796875 285.691406 80.5625 287.273438 81.410156 C 288.855469 82.253906 290.394531 83.175781 291.882812 84.171875 C 293.375 85.167969 294.8125 86.234375 296.199219 87.375 C 297.585938 88.511719 298.914062 89.714844 300.183594 90.984375 C 301.449219 92.25 302.652344 93.578125 303.792969 94.964844 C 304.929688 96.351562 305.996094 97.789062 306.992188 99.28125 C 307.988281 100.773438 308.910156 102.308594 309.757812 103.890625 C 310.601562 105.472656 311.367188 107.09375 312.054688 108.75 C 312.742188 110.40625 313.34375 112.09375 313.863281 113.808594 C 314.386719 115.527344 314.820312 117.261719 315.171875 119.023438 C 315.519531 120.78125 315.78125 122.554688 315.960938 124.339844 C 316.136719 126.125 316.222656 127.914062 316.222656 129.707031 C 316.222656 131.5 316.132812 133.289062 315.953125 135.074219 C 315.777344 136.855469 315.511719 138.628906 315.160156 140.386719 C 314.808594 142.144531 314.375 143.882812 313.851562 145.597656 C 313.328125 147.3125 312.726562 149 312.039062 150.65625 C 311.351562 152.3125 310.585938 153.929688 309.738281 155.511719 C 308.894531 157.089844 307.972656 158.628906 306.976562 160.117188 C 305.980469 161.609375 304.910156 163.046875 303.773438 164.433594 C 302.636719 165.820312 301.433594 167.144531 300.164062 168.414062 C 298.898438 169.679688 297.570312 170.882812 296.183594 172.023438 C 294.800781 173.160156 293.359375 174.226562 291.871094 175.222656 C 290.378906 176.21875 288.84375 177.140625 287.261719 177.988281 C 285.683594 178.832031 284.0625 179.597656 282.40625 180.285156 C 280.75 180.972656 279.066406 181.578125 277.347656 182.097656 C 275.632812 182.621094 273.898438 183.058594 272.140625 183.410156 C 270.378906 183.757812 268.609375 184.023438 266.824219 184.199219 C 265.039062 184.378906 263.253906 184.46875 261.457031 184.46875 Z M 261.457031 83.351562 C 259.941406 83.351562 258.425781 83.425781 256.914062 83.574219 C 255.402344 83.722656 253.902344 83.945312 252.414062 84.242188 C 250.925781 84.535156 249.453125 84.90625 248 85.347656 C 246.546875 85.785156 245.121094 86.296875 243.714844 86.878906 C 242.3125 87.460938 240.941406 88.109375 239.605469 88.824219 C 238.265625 89.539062 236.964844 90.320312 235.699219 91.164062 C 234.4375 92.007812 233.21875 92.910156 232.046875 93.875 C 230.871094 94.835938 229.75 95.855469 228.675781 96.929688 C 227.601562 98.003906 226.582031 99.125 225.621094 100.300781 C 224.65625 101.472656 223.753906 102.691406 222.910156 103.957031 C 222.066406 105.21875 221.285156 106.519531 220.570312 107.859375 C 219.855469 109.195312 219.207031 110.566406 218.625 111.972656 C 218.042969 113.375 217.535156 114.800781 217.09375 116.253906 C 216.652344 117.707031 216.285156 119.179688 215.988281 120.667969 C 215.691406 122.15625 215.46875 123.65625 215.320312 125.167969 C 215.171875 126.679688 215.097656 128.195312 215.097656 129.714844 C 215.097656 131.230469 215.171875 132.746094 215.320312 134.257812 C 215.46875 135.769531 215.691406 137.269531 215.988281 138.757812 C 216.285156 140.246094 216.652344 141.71875 217.09375 143.171875 C 217.535156 144.625 218.046875 146.050781 218.628906 147.457031 C 219.207031 148.859375 219.855469 150.230469 220.574219 151.570312 C 221.289062 152.90625 222.066406 154.207031 222.910156 155.472656 C 223.753906 156.734375 224.660156 157.953125 225.621094 159.125 C 226.585938 160.300781 227.605469 161.421875 228.679688 162.496094 C 229.75 163.570312 230.875 164.589844 232.050781 165.550781 C 233.222656 166.515625 234.441406 167.417969 235.703125 168.261719 C 236.964844 169.105469 238.265625 169.886719 239.605469 170.601562 C 240.945312 171.316406 242.316406 171.964844 243.71875 172.546875 C 245.121094 173.125 246.550781 173.636719 248.003906 174.078125 C 249.457031 174.519531 250.929688 174.886719 252.417969 175.183594 C 253.90625 175.480469 255.40625 175.703125 256.917969 175.851562 C 258.429688 176 259.945312 176.074219 261.460938 176.074219 C 262.980469 176.074219 264.496094 176 266.007812 175.851562 C 267.519531 175.699219 269.019531 175.476562 270.507812 175.183594 C 271.996094 174.886719 273.46875 174.515625 274.921875 174.074219 C 276.375 173.636719 277.800781 173.125 279.203125 172.542969 C 280.605469 171.960938 281.976562 171.3125 283.316406 170.597656 C 284.65625 169.882812 285.957031 169.101562 287.21875 168.257812 C 288.480469 167.414062 289.699219 166.511719 290.875 165.546875 C 292.046875 164.582031 293.171875 163.566406 294.246094 162.492188 C 295.320312 161.417969 296.335938 160.292969 297.300781 159.121094 C 298.261719 157.945312 299.167969 156.726562 300.011719 155.464844 C 300.855469 154.203125 301.632812 152.902344 302.347656 151.5625 C 303.0625 150.222656 303.710938 148.851562 304.292969 147.449219 C 304.875 146.046875 305.386719 144.617188 305.824219 143.164062 C 306.265625 141.710938 306.636719 140.242188 306.929688 138.75 C 307.226562 137.261719 307.449219 135.761719 307.597656 134.25 C 307.746094 132.738281 307.820312 131.226562 307.820312 129.707031 C 307.820312 128.1875 307.742188 126.675781 307.59375 125.164062 C 307.441406 123.652344 307.21875 122.152344 306.921875 120.664062 C 306.625 119.175781 306.253906 117.707031 305.8125 116.253906 C 305.371094 114.800781 304.859375 113.375 304.277344 111.972656 C 303.695312 110.570312 303.046875 109.203125 302.332031 107.863281 C 301.613281 106.523438 300.835938 105.222656 299.992188 103.960938 C 299.148438 102.699219 298.242188 101.484375 297.28125 100.308594 C 296.316406 99.136719 295.300781 98.015625 294.226562 96.941406 C 293.152344 95.867188 292.03125 94.847656 290.855469 93.886719 C 289.683594 92.921875 288.464844 92.019531 287.203125 91.175781 C 285.941406 90.332031 284.640625 89.554688 283.304688 88.835938 C 281.964844 88.121094 280.59375 87.472656 279.191406 86.890625 C 277.789062 86.308594 276.363281 85.796875 274.910156 85.355469 C 273.457031 84.914062 271.988281 84.546875 270.5 84.25 C 269.011719 83.949219 267.511719 83.726562 266 83.578125 C 264.492188 83.425781 262.976562 83.351562 261.457031 83.351562 Z M 261.457031 83.351562 " fill-opacity="1" fill-rule="nonzero"/></g></svg>