<svg xmlns="http://www.w3.org/2000/svg" xmlns:xlink="http://www.w3.org/1999/xlink" width="500" zoomAndPan="magnify" viewBox="0 0 375 374.999991" height="500" preserveAspectRatio="xMidYMid meet" version="1.0"><defs><clipPath id="31cdd0690b"><path d="M 187.5 0 C 83.945312 0 0 83.945312 0 187.5 C 0 291.054688 83.945312 375 187.5 375 C 291.054688 375 375 291.054688 375 187.5 C 375 83.945312 291.054688 0 187.5 0 Z M 187.5 0 " clip-rule="nonzero"/></clipPath><clipPath id="61c1406077"><path d="M 0 0 L 375 0 L 375 375 L 0 375 Z M 0 0 " clip-rule="nonzero"/></clipPath><clipPath id="2a3a44f644"><path d="M 187.5 0 C 83.945312 0 0 83.945312 0 187.5 C 0 291.054688 83.945312 375 187.5 375 C 291.054688 375 375 291.054688 375 187.5 C 375 83.945312 291.054688 0 187.5 0 Z M 187.5 0 " clip-rule="nonzero"/></clipPath><clipPath id="4ce2c611a3"><rect x="0" width="375" y="0" height="375"/></clipPath><clipPath id="746a7950dc"><path d="M 16.128906 16.128906 L 358.871094 16.128906 L 358.871094 358.871094 L 16.128906 358.871094 Z M 16.128906 16.128906 " clip-rule="nonzero"/></clipPath><clipPath id="c62491a9cd"><path d="M 187.5 16.128906 C 92.855469 16.128906 16.128906 92.855469 16.128906 187.5 C 16.128906 282.144531 92.855469 358.871094 187.5 358.871094 C 282.144531 358.871094 358.871094 282.144531 358.871094 187.5 C 358.871094 92.855469 282.144531 16.128906 187.5 16.128906 Z M 187.5 16.128906 " clip-rule="nonzero"/></clipPath><clipPath id="479e306a81"><path d="M 0.128906 0.128906 L 342.871094 0.128906 L 342.871094 342.871094 L 0.128906 342.871094 Z M 0.128906 0.128906 " clip-rule="nonzero"/></clipPath><clipPath id="2aae8951e3"><path d="M 171.5 0.128906 C 76.855469 0.128906 0.128906 76.855469 0.128906 171.5 C 0.128906 266.144531 76.855469 342.871094 171.5 342.871094 C 266.144531 342.871094 342.871094 266.144531 342.871094 171.5 C 342.871094 76.855469 266.144531 0.128906 171.5 0.128906 Z M 171.5 0.128906 " clip-rule="nonzero"/></clipPath><clipPath id="35471a8cdd"><rect x="0" width="343" y="0" height="343"/></clipPath><clipPath id="069fbe08d1"><path d="M 113 218 L 168 218 L 168 271.550781 L 113 271.550781 Z M 113 218 " clip-rule="nonzero"/></clipPath><clipPath id="670af12125"><path d="M 32.597656 118.550781 L 327 118.550781 L 327 271.550781 L 32.597656 271.550781 Z M 32.597656 118.550781 " clip-rule="nonzero"/></clipPath></defs><g clip-path="url(#31cdd0690b)"><g transform="matrix(1, 0, 0, 1, 0, 0)"><g clip-path="url(#4ce2c611a3)"><g clip-path="url(#61c1406077)"><g clip-path="url(#2a3a44f644)"><rect x="-82.5" width="540" fill="#0f0069" height="539.999987" y="-82.499998" fill-opacity="1"/></g></g></g></g></g><g clip-path="url(#746a7950dc)"><g clip-path="url(#c62491a9cd)"><g transform="matrix(1, 0, 0, 1, 16, 16)"><g clip-path="url(#35471a8cdd)"><g clip-path="url(#479e306a81)"><g clip-path="url(#2aae8951e3)"><path fill="#004aad" d="M 0.128906 0.128906 L 342.871094 0.128906 L 342.871094 342.871094 L 0.128906 342.871094 Z M 0.128906 0.128906 " fill-opacity="1" fill-rule="nonzero"/></g></g></g></g></g></g><path fill="#090042" d="M 245.757812 158.007812 L 245.757812 182.015625 L 281.636719 182.015625 L 271.9375 158.007812 Z M 245.757812 158.007812 " fill-opacity="1" fill-rule="nonzero"/><g clip-path="url(#069fbe08d1)"><path fill="#090042" d="M 140.457031 218.429688 C 125.699219 218.429688 113.742188 230.390625 113.742188 245.136719 C 113.742188 259.894531 125.699219 271.851562 140.457031 271.851562 C 155.203125 271.851562 167.160156 259.894531 167.160156 245.136719 C 167.160156 230.394531 155.203125 218.429688 140.457031 218.429688 Z M 140.457031 257.0625 C 133.875 257.0625 128.535156 251.722656 128.535156 245.140625 C 128.535156 238.570312 133.875 233.230469 140.457031 233.230469 C 147.027344 233.230469 152.367188 238.570312 152.367188 245.140625 C 152.367188 251.722656 147.027344 257.0625 140.457031 257.0625 Z M 140.457031 257.0625 " fill-opacity="1" fill-rule="nonzero"/></g><g clip-path="url(#670af12125)"><path fill="#090042" d="M 324.113281 190.09375 L 301.917969 180.929688 L 286 141.546875 C 285.320312 139.882812 283.707031 138.785156 281.902344 138.785156 L 237.953125 138.785156 L 237.953125 128.832031 C 237.953125 123.15625 233.351562 118.550781 227.6875 118.550781 L 91.710938 118.550781 C 86.035156 118.550781 81.425781 123.15625 81.425781 128.832031 L 81.425781 135.011719 L 53.523438 135.011719 C 51.085938 135.011719 49.105469 136.992188 49.105469 139.433594 C 49.105469 141.871094 51.085938 143.851562 53.523438 143.851562 L 143.320312 143.851562 C 145.761719 143.851562 147.742188 145.832031 147.742188 148.273438 C 147.742188 150.714844 145.761719 152.695312 143.320312 152.695312 L 81.425781 152.695312 L 81.425781 162.269531 L 37.316406 162.269531 C 34.878906 162.269531 32.898438 164.25 32.898438 166.691406 C 32.898438 169.132812 34.878906 171.109375 37.316406 171.109375 L 132.269531 171.109375 C 134.710938 171.109375 136.691406 173.089844 136.691406 175.53125 C 136.691406 177.972656 134.710938 179.953125 132.269531 179.953125 L 81.425781 179.953125 L 81.425781 189.527344 L 59.417969 189.527344 C 56.980469 189.527344 55 191.507812 55 193.949219 C 55 196.390625 56.980469 198.371094 59.417969 198.371094 L 121.21875 198.371094 C 123.660156 198.371094 125.640625 200.347656 125.640625 202.789062 C 125.640625 205.230469 123.660156 207.210938 121.21875 207.210938 L 81.425781 207.210938 L 81.425781 235.023438 C 81.425781 240.699219 86.027344 245.300781 91.703125 245.300781 L 106.089844 245.300781 C 106.089844 245.242188 106.089844 245.195312 106.089844 245.140625 C 106.089844 226.167969 121.46875 210.792969 140.449219 210.792969 C 159.421875 210.792969 174.796875 226.167969 174.796875 245.140625 C 174.796875 245.199219 174.796875 245.246094 174.796875 245.300781 L 254.929688 245.300781 C 255.011719 259.976562 266.933594 271.855469 281.632812 271.855469 C 296.332031 271.855469 308.246094 259.976562 308.324219 245.300781 L 322.429688 245.300781 C 324.867188 245.300781 326.847656 243.320312 326.847656 240.878906 L 326.847656 194.179688 C 326.855469 192.394531 325.769531 190.785156 324.113281 190.09375 Z M 281.636719 257.0625 C 275.054688 257.0625 269.714844 251.722656 269.714844 245.140625 C 269.714844 238.570312 275.054688 233.230469 281.636719 233.230469 C 288.210938 233.230469 293.550781 238.570312 293.550781 245.140625 C 293.554688 251.722656 288.210938 257.0625 281.636719 257.0625 Z M 318.011719 236.460938 L 306.78125 236.460938 C 303.167969 226 293.324219 218.429688 281.636719 218.429688 C 269.945312 218.429688 260.101562 225.992188 256.484375 236.460938 L 237.949219 236.460938 L 237.949219 147.632812 L 278.914062 147.632812 L 294.421875 185.976562 C 294.871094 187.070312 295.734375 187.945312 296.824219 188.402344 L 318.007812 197.136719 L 318.007812 236.460938 Z M 318.011719 236.460938 " fill-opacity="1" fill-rule="nonzero"/></g></svg>