<svg xmlns="http://www.w3.org/2000/svg" xmlns:xlink="http://www.w3.org/1999/xlink" width="500" zoomAndPan="magnify" viewBox="0 0 375 374.999991" height="500" preserveAspectRatio="xMidYMid meet" version="1.0"><defs><clipPath id="729258c646"><path d="M 37.5 37.5 L 337.5 37.5 L 337.5 337.5 L 37.5 337.5 Z M 37.5 37.5 " clip-rule="nonzero"/></clipPath><clipPath id="4102e78f5a"><path d="M 43.5 37.5 L 331.5 37.5 C 333.089844 37.5 334.617188 38.132812 335.742188 39.257812 C 336.867188 40.382812 337.5 41.910156 337.5 43.5 L 337.5 331.5 C 337.5 333.089844 336.867188 334.617188 335.742188 335.742188 C 334.617188 336.867188 333.089844 337.5 331.5 337.5 L 43.5 337.5 C 41.910156 337.5 40.382812 336.867188 39.257812 335.742188 C 38.132812 334.617188 37.5 333.089844 37.5 331.5 L 37.5 43.5 C 37.5 41.910156 38.132812 40.382812 39.257812 39.257812 C 40.382812 38.132812 41.910156 37.5 43.5 37.5 Z M 43.5 37.5 " clip-rule="nonzero"/></clipPath><clipPath id="58b4a99c64"><path d="M 0.5 0.5 L 300.5 0.5 L 300.5 300.5 L 0.5 300.5 Z M 0.5 0.5 " clip-rule="nonzero"/></clipPath><clipPath id="de963b122f"><path d="M 6.5 0.5 L 294.5 0.5 C 296.089844 0.5 297.617188 1.132812 298.742188 2.257812 C 299.867188 3.382812 300.5 4.910156 300.5 6.5 L 300.5 294.5 C 300.5 296.089844 299.867188 297.617188 298.742188 298.742188 C 297.617188 299.867188 296.089844 300.5 294.5 300.5 L 6.5 300.5 C 4.910156 300.5 3.382812 299.867188 2.257812 298.742188 C 1.132812 297.617188 0.5 296.089844 0.5 294.5 L 0.5 6.5 C 0.5 4.910156 1.132812 3.382812 2.257812 2.257812 C 3.382812 1.132812 4.910156 0.5 6.5 0.5 Z M 6.5 0.5 " clip-rule="nonzero"/></clipPath><clipPath id="263edc2d2b"><rect x="0" width="301" y="0" height="301"/></clipPath><clipPath id="8bebc5a0c7"><path d="M 107.246094 107.246094 L 267.753906 107.246094 L 267.753906 267.753906 L 107.246094 267.753906 Z M 107.246094 107.246094 " clip-rule="nonzero"/></clipPath><clipPath id="ee37316372"><path d="M 113.246094 107.246094 L 261.753906 107.246094 C 263.34375 107.246094 264.871094 107.878906 265.996094 109.003906 C 267.121094 110.128906 267.753906 111.65625 267.753906 113.246094 L 267.753906 261.753906 C 267.753906 263.34375 267.121094 264.871094 265.996094 265.996094 C 264.871094 267.121094 263.34375 267.753906 261.753906 267.753906 L 113.246094 267.753906 C 111.65625 267.753906 110.128906 267.121094 109.003906 265.996094 C 107.878906 264.871094 107.246094 263.34375 107.246094 261.753906 L 107.246094 113.246094 C 107.246094 111.65625 107.878906 110.128906 109.003906 109.003906 C 110.128906 107.878906 111.65625 107.246094 113.246094 107.246094 Z M 113.246094 107.246094 " clip-rule="nonzero"/></clipPath><clipPath id="0ecc29f4e2"><path d="M 0.246094 0.246094 L 160.753906 0.246094 L 160.753906 160.753906 L 0.246094 160.753906 Z M 0.246094 0.246094 " clip-rule="nonzero"/></clipPath><clipPath id="d37e6cb187"><path d="M 6.246094 0.246094 L 154.753906 0.246094 C 156.34375 0.246094 157.871094 0.878906 158.996094 2.003906 C 160.121094 3.128906 160.753906 4.65625 160.753906 6.246094 L 160.753906 154.753906 C 160.753906 156.34375 160.121094 157.871094 158.996094 158.996094 C 157.871094 160.121094 156.34375 160.753906 154.753906 160.753906 L 6.246094 160.753906 C 4.65625 160.753906 3.128906 160.121094 2.003906 158.996094 C 0.878906 157.871094 0.246094 156.34375 0.246094 154.753906 L 0.246094 6.246094 C 0.246094 4.65625 0.878906 3.128906 2.003906 2.003906 C 3.128906 0.878906 4.65625 0.246094 6.246094 0.246094 Z M 6.246094 0.246094 " clip-rule="nonzero"/></clipPath><clipPath id="0713a3a159"><rect x="0" width="161" y="0" height="161"/></clipPath><clipPath id="e10fd69cab"><path d="M 107.246094 107.246094 L 267.746094 107.246094 L 267.746094 267.746094 L 107.246094 267.746094 Z M 107.246094 107.246094 " clip-rule="nonzero"/></clipPath><clipPath id="81d9ca0387"><path d="M 113.246094 107.246094 L 261.746094 107.246094 C 263.335938 107.246094 264.863281 107.878906 265.988281 109.003906 C 267.113281 110.128906 267.746094 111.65625 267.746094 113.246094 L 267.746094 261.746094 C 267.746094 263.335938 267.113281 264.863281 265.988281 265.988281 C 264.863281 267.113281 263.335938 267.746094 261.746094 267.746094 L 113.246094 267.746094 C 111.65625 267.746094 110.128906 267.113281 109.003906 265.988281 C 107.878906 264.863281 107.246094 263.335938 107.246094 261.746094 L 107.246094 113.246094 C 107.246094 111.65625 107.878906 110.128906 109.003906 109.003906 C 110.128906 107.878906 111.65625 107.246094 113.246094 107.246094 Z M 113.246094 107.246094 " clip-rule="nonzero"/></clipPath><clipPath id="50aa109555"><path d="M 121.882812 121.101562 L 153.394531 121.101562 L 153.394531 152.613281 L 121.882812 152.613281 Z M 121.882812 121.101562 " clip-rule="nonzero"/></clipPath><clipPath id="cfdbae5d29"><path d="M 137.636719 121.101562 C 128.9375 121.101562 121.882812 128.15625 121.882812 136.859375 C 121.882812 145.558594 128.9375 152.613281 137.636719 152.613281 C 146.339844 152.613281 153.394531 145.558594 153.394531 136.859375 C 153.394531 128.15625 146.339844 121.101562 137.636719 121.101562 Z M 137.636719 121.101562 " clip-rule="nonzero"/></clipPath><clipPath id="8adb6096d1"><path d="M 0.882812 0.101562 L 32.394531 0.101562 L 32.394531 31.613281 L 0.882812 31.613281 Z M 0.882812 0.101562 " clip-rule="nonzero"/></clipPath><clipPath id="a598bf4690"><path d="M 16.636719 0.101562 C 7.9375 0.101562 0.882812 7.15625 0.882812 15.859375 C 0.882812 24.558594 7.9375 31.613281 16.636719 31.613281 C 25.339844 31.613281 32.394531 24.558594 32.394531 15.859375 C 32.394531 7.15625 25.339844 0.101562 16.636719 0.101562 Z M 16.636719 0.101562 " clip-rule="nonzero"/></clipPath><clipPath id="8d892459ac"><rect x="0" width="33" y="0" height="32"/></clipPath><clipPath id="63d95c8807"><path d="M 115.636719 232.191406 L 267.753906 232.191406 L 267.753906 265.847656 L 115.636719 265.847656 Z M 115.636719 232.191406 " clip-rule="nonzero"/></clipPath><clipPath id="ee29ff3821"><path d="M 121.636719 232.191406 L 261.753906 232.191406 C 263.34375 232.191406 264.871094 232.820312 265.996094 233.949219 C 267.121094 235.074219 267.753906 236.597656 267.753906 238.191406 L 267.753906 259.847656 C 267.753906 261.4375 267.121094 262.964844 265.996094 264.089844 C 264.871094 265.214844 263.34375 265.847656 261.753906 265.847656 L 121.636719 265.847656 C 120.046875 265.847656 118.519531 265.214844 117.394531 264.089844 C 116.269531 262.964844 115.636719 261.4375 115.636719 259.847656 L 115.636719 238.191406 C 115.636719 236.597656 116.269531 235.074219 117.394531 233.949219 C 118.519531 232.820312 120.046875 232.191406 121.636719 232.191406 Z M 121.636719 232.191406 " clip-rule="nonzero"/></clipPath><clipPath id="f712e1f95c"><path d="M 0.636719 0.191406 L 152.753906 0.191406 L 152.753906 33.847656 L 0.636719 33.847656 Z M 0.636719 0.191406 " clip-rule="nonzero"/></clipPath><clipPath id="9f948b9e61"><path d="M 6.636719 0.191406 L 146.753906 0.191406 C 148.34375 0.191406 149.871094 0.820312 150.996094 1.949219 C 152.121094 3.074219 152.753906 4.597656 152.753906 6.191406 L 152.753906 27.847656 C 152.753906 29.4375 152.121094 30.964844 150.996094 32.089844 C 149.871094 33.214844 148.34375 33.847656 146.753906 33.847656 L 6.636719 33.847656 C 5.046875 33.847656 3.519531 33.214844 2.394531 32.089844 C 1.269531 30.964844 0.636719 29.4375 0.636719 27.847656 L 0.636719 6.191406 C 0.636719 4.597656 1.269531 3.074219 2.394531 1.949219 C 3.519531 0.820312 5.046875 0.191406 6.636719 0.191406 Z M 6.636719 0.191406 " clip-rule="nonzero"/></clipPath><clipPath id="da03d06534"><rect x="0" width="153" y="0" height="34"/></clipPath><clipPath id="676105885c"><path d="M 109.902344 188.25 L 187.152344 188.25 L 187.152344 265.5 L 109.902344 265.5 Z M 109.902344 188.25 " clip-rule="nonzero"/></clipPath><clipPath id="4f5858d8ea"><path d="M 187.5 152.613281 L 239 152.613281 L 239 180.363281 L 187.5 180.363281 Z M 187.5 152.613281 " clip-rule="nonzero"/></clipPath><clipPath id="af9222fc7e"><path d="M 187.5 152.613281 L 239.25 152.613281 L 239.25 180.363281 L 187.5 180.363281 Z M 187.5 152.613281 " clip-rule="nonzero"/></clipPath></defs><rect x="-37.5" width="450" fill="#ffffff" y="-37.499999" height="449.999989" fill-opacity="1"/><rect x="-37.5" width="450" fill="#ffffff" y="-37.499999" height="449.999989" fill-opacity="1"/><g clip-path="url(#729258c646)"><g clip-path="url(#4102e78f5a)"><g transform="matrix(1, 0, 0, 1, 37, 37)"><g clip-path="url(#263edc2d2b)"><g clip-path="url(#58b4a99c64)"><g clip-path="url(#de963b122f)"><path fill="#d9d9d9" d="M 0.5 0.5 L 300.5 0.5 L 300.5 300.5 L 0.5 300.5 Z M 0.5 0.5 " fill-opacity="1" fill-rule="nonzero"/></g></g></g></g></g></g><g clip-path="url(#8bebc5a0c7)"><g clip-path="url(#ee37316372)"><g transform="matrix(1, 0, 0, 1, 107, 107)"><g clip-path="url(#0713a3a159)"><g clip-path="url(#0ecc29f4e2)"><g clip-path="url(#d37e6cb187)"><path fill="#efefef" d="M 0.246094 0.246094 L 160.753906 0.246094 L 160.753906 160.753906 L 0.246094 160.753906 Z M 0.246094 0.246094 " fill-opacity="1" fill-rule="nonzero"/></g></g></g></g></g></g><g clip-path="url(#e10fd69cab)"><g clip-path="url(#81d9ca0387)"><path stroke-linecap="butt" transform="matrix(0.75, 0, 0, 0.75, 107.246093, 107.246088)" fill="none" stroke-linejoin="miter" d="M 8.000002 0.00000745666 L 206.000028 0.00000745666 C 208.11982 0.00000745666 210.156279 0.843758 211.656279 2.343758 C 213.156279 3.843758 214.000029 5.880217 214.000029 8.000008 L 214.000029 206.000034 C 214.000029 208.119826 213.156279 210.156285 211.656279 211.656285 C 210.156279 213.156285 208.11982 214.000035 206.000028 214.000035 L 8.000002 214.000035 C 5.880211 214.000035 3.843752 213.156285 2.343752 211.656285 C 0.843752 210.156285 0.00000145666 208.119826 0.00000145666 206.000034 L 0.00000145666 8.000008 C 0.00000145666 5.880217 0.843752 3.843758 2.343752 2.343758 C 3.843752 0.843758 5.880211 0.00000745666 8.000002 0.00000745666 Z M 8.000002 0.00000745666 " stroke="#a4a4a4" stroke-width="8" stroke-opacity="1" stroke-miterlimit="4"/></g></g><g clip-path="url(#50aa109555)"><g clip-path="url(#cfdbae5d29)"><g transform="matrix(1, 0, 0, 1, 121, 121)"><g clip-path="url(#8d892459ac)"><g clip-path="url(#8adb6096d1)"><g clip-path="url(#a598bf4690)"><path fill="#a4a4a4" d="M 0.882812 0.101562 L 32.394531 0.101562 L 32.394531 31.613281 L 0.882812 31.613281 Z M 0.882812 0.101562 " fill-opacity="1" fill-rule="nonzero"/></g></g></g></g></g></g><g clip-path="url(#63d95c8807)"><g clip-path="url(#ee29ff3821)"><g transform="matrix(1, 0, 0, 1, 115, 232)"><g clip-path="url(#da03d06534)"><g clip-path="url(#f712e1f95c)"><g clip-path="url(#9f948b9e61)"><path fill="#a4a4a4" d="M 0.636719 0.191406 L 152.753906 0.191406 L 152.753906 33.847656 L 0.636719 33.847656 Z M 0.636719 0.191406 " fill-opacity="1" fill-rule="nonzero"/></g></g></g></g></g></g><path fill="#6b6b6b" d="M 111.835938 190.425781 L 111.835938 264.148438 L 185.558594 264.148438 Z M 111.835938 190.425781 " fill-opacity="1" fill-rule="nonzero"/><g clip-path="url(#676105885c)"><path fill="#6b6b6b" d="M 185.558594 265.839844 L 111.835938 265.839844 C 110.628906 265.839844 109.902344 265.113281 109.902344 264.148438 L 109.902344 190.425781 C 109.902344 189.699219 110.386719 188.976562 111.109375 188.734375 C 111.59375 188.25 112.5625 188.492188 113.042969 188.976562 L 186.765625 262.699219 C 187.25 263.179688 187.492188 263.90625 187.25 264.632812 C 186.765625 265.355469 186.285156 265.839844 185.558594 265.839844 Z M 113.527344 262.214844 L 180.964844 262.214844 L 113.527344 194.777344 Z M 113.527344 262.214844 " fill-opacity="1" fill-rule="nonzero"/></g><g clip-path="url(#4f5858d8ea)"><path fill="#d9d9d9" d="M 231.398438 161.675781 C 231.40625 161.53125 231.425781 161.390625 231.425781 161.246094 C 231.425781 156.578125 226.476562 152.792969 220.371094 152.792969 C 216.828125 152.792969 213.679688 154.074219 211.65625 156.054688 C 210.003906 155.300781 208.082031 154.863281 206.019531 154.863281 C 200.632812 154.863281 196.152344 157.808594 195.167969 161.703125 C 190.8125 162.835938 187.675781 165.980469 187.675781 169.691406 C 187.675781 174.359375 192.625 178.144531 198.730469 178.144531 C 201.082031 178.144531 203.257812 177.578125 205.050781 176.621094 C 207.050781 178.792969 210.351562 180.210938 214.085938 180.210938 C 217.535156 180.210938 220.613281 179.007812 222.636719 177.117188 C 224.207031 177.769531 226.007812 178.144531 227.921875 178.144531 C 234.03125 178.144531 238.980469 174.359375 238.980469 169.691406 C 238.980469 165.957031 235.800781 162.789062 231.398438 161.675781 " fill-opacity="1" fill-rule="nonzero"/></g><g clip-path="url(#af9222fc7e)"><path fill="#ffffff" d="M 231.398438 161.675781 L 231.570312 161.6875 C 231.578125 161.550781 231.601562 161.40625 231.601562 161.246094 C 231.601562 158.847656 230.328125 156.683594 228.292969 155.128906 C 226.257812 153.574219 223.457031 152.621094 220.371094 152.621094 C 216.785156 152.621094 213.597656 153.914062 211.535156 155.929688 L 211.65625 156.054688 L 211.730469 155.894531 C 210.054688 155.132812 208.105469 154.6875 206.019531 154.6875 C 203.292969 154.6875 200.796875 155.433594 198.851562 156.675781 C 196.902344 157.917969 195.503906 159.660156 195 161.660156 L 195.167969 161.703125 L 195.125 161.53125 C 192.917969 162.109375 191.019531 163.191406 189.664062 164.609375 C 188.308594 166.027344 187.5 167.785156 187.503906 169.691406 C 187.5 172.089844 188.773438 174.253906 190.808594 175.804688 C 192.84375 177.363281 195.644531 178.316406 198.730469 178.316406 C 201.113281 178.316406 203.316406 177.746094 205.132812 176.777344 L 205.050781 176.621094 L 204.921875 176.738281 C 206.964844 178.949219 210.304688 180.382812 214.085938 180.386719 C 217.574219 180.386719 220.691406 179.167969 222.757812 177.242188 L 222.636719 177.117188 L 222.570312 177.277344 C 224.164062 177.941406 225.984375 178.316406 227.921875 178.316406 C 231.011719 178.316406 233.8125 177.363281 235.847656 175.804688 C 237.882812 174.253906 239.15625 172.089844 239.152344 169.691406 C 239.15625 167.773438 238.335938 166.003906 236.964844 164.582031 C 235.59375 163.15625 233.671875 162.070312 231.441406 161.507812 L 231.398438 161.675781 L 231.570312 161.6875 L 231.398438 161.675781 L 231.355469 161.84375 C 233.527344 162.394531 235.394531 163.449219 236.714844 164.820312 C 238.035156 166.195312 238.804688 167.875 238.804688 169.691406 C 238.804688 171.964844 237.605469 174.027344 235.636719 175.53125 C 233.667969 177.035156 230.941406 177.96875 227.921875 177.96875 C 226.03125 177.96875 224.253906 177.601562 222.707031 176.957031 L 222.601562 176.914062 L 222.519531 176.988281 C 220.53125 178.84375 217.492188 180.039062 214.085938 180.039062 C 210.394531 180.039062 207.140625 178.632812 205.179688 176.503906 L 205.085938 176.40625 L 204.96875 176.46875 C 203.203125 177.410156 201.054688 177.96875 198.730469 177.96875 C 195.714844 177.96875 192.988281 177.035156 191.019531 175.53125 C 189.050781 174.027344 187.851562 171.964844 187.847656 169.691406 C 187.851562 167.886719 188.609375 166.214844 189.914062 164.851562 C 191.21875 163.484375 193.0625 162.429688 195.210938 161.871094 L 195.3125 161.84375 L 195.335938 161.746094 C 195.816406 159.847656 197.152344 158.171875 199.035156 156.96875 C 200.921875 155.765625 203.355469 155.035156 206.019531 155.035156 C 208.054688 155.035156 209.957031 155.472656 211.585938 156.210938 L 211.691406 156.261719 L 211.777344 156.175781 C 213.761719 154.234375 216.867188 152.96875 220.371094 152.96875 C 223.386719 152.96875 226.117188 153.902344 228.082031 155.40625 C 230.050781 156.914062 231.253906 158.976562 231.253906 161.246094 C 231.253906 161.375 231.234375 161.511719 231.226562 161.664062 L 231.214844 161.808594 L 231.355469 161.84375 L 231.398438 161.675781 " fill-opacity="1" fill-rule="nonzero"/></g></svg>